<svg width="26" height="26" viewBox="0 0 26 26" fill="none" xmlns="http://www.w3.org/2000/svg">
<path d="M13 26C20.1797 26 26 20.1797 26 13C26 5.8203 20.1797 0 13 0C5.8203 0 0 5.8203 0 13C0 20.1797 5.8203 26 13 26Z" fill="#F0F0F0"/>
<path d="M25.89 11.3044H10.174H10.1739V0.309082C8.97254 0.57548 7.83357 1.00727 6.7826 1.58075V11.3043V11.3044H0.110043C0.0376797 11.8595 0 12.4254 0 13.0001C0 13.5748 0.0376797 14.1407 0.110043 14.6957H6.78255H6.7826V24.4194C7.83357 24.9928 8.97254 25.4247 10.1739 25.691V14.6959V14.6958H25.89C25.9622 14.1407 26 13.5748 26 13.0001C26 12.4254 25.9622 11.8595 25.89 11.3044Z" fill="#0052B4"/>
</svg>
