<svg width="32" height="32" viewBox="0 0 32 32" fill="none" xmlns="http://www.w3.org/2000/svg">
	<path fill-rule="evenodd" clip-rule="evenodd" d="M27.021 13.3333H4.97656L6.58545 6.90667C6.79843 6.0757 7.28168 5.33915 7.95916 4.81294C8.63663 4.28673 9.46985 4.00075 10.3277 4H12.8699C13.228 4.00019 13.579 4.10007 13.8836 4.28846C14.1882 4.47685 14.4343 4.74631 14.5943 5.06667L15.1099 6.13333C15.1927 6.29632 15.3204 6.43226 15.4779 6.52517C15.6353 6.61807 15.8161 6.66408 15.9988 6.65778C16.1813 6.66301 16.3616 6.61655 16.5189 6.52376C16.6761 6.43097 16.804 6.29563 16.8877 6.13333L17.4299 5.06667C17.59 4.74631 17.8361 4.47685 18.1406 4.28846C18.4452 4.10007 18.7962 4.00019 19.1543 4H21.6966C22.5544 4.00075 23.3876 4.28673 24.0651 4.81294C24.7426 5.33915 25.2258 6.0757 25.4388 6.90667L27.021 13.3333Z" fill="#FFC42A"/>
	<path d="M30.2218 15.5198C30.2218 15.7108 30.1459 15.8939 30.0109 16.0289C29.8759 16.1639 29.6927 16.2398 29.5018 16.2398H2.49734C2.30639 16.2398 2.12325 16.1639 1.98823 16.0289C1.8532 15.8939 1.77734 15.7108 1.77734 15.5198C1.77734 15.3288 1.8532 15.1457 1.98823 15.0107C2.12325 14.8757 2.30639 14.7998 2.49734 14.7998H29.5018C29.692 14.8021 29.8738 14.8787 30.0084 15.0132C30.1429 15.1478 30.2195 15.3296 30.2218 15.5198Z" fill="#FFC42A"/>
	<path d="M27.0751 21.0752C26.6023 20.6032 25.9652 20.3324 25.2973 20.3196H20.6307C20.0005 20.3229 19.3934 20.5569 18.924 20.9774L18.3195 20.3729C17.8207 19.8781 17.1466 19.6002 16.444 19.5996H15.1551C14.4524 19.6002 13.7784 19.8781 13.2795 20.3729L12.8529 20.7996C12.417 20.4884 11.8951 20.3206 11.3595 20.3196H6.74621C6.07828 20.3324 5.44122 20.6032 4.96843 21.0752C4.61581 21.4257 4.36819 21.8677 4.25353 22.3515C4.13887 22.8353 4.16173 23.3415 4.31954 23.8129L4.84399 25.3774C5.09521 26.1513 5.58469 26.8259 6.24244 27.3049C6.9002 27.7838 7.69255 28.0426 8.50621 28.0441H9.69732C10.511 28.0426 11.3033 27.7838 11.9611 27.3049C12.6188 26.8259 13.1083 26.1513 13.3595 25.3774L13.884 23.8129C14.0783 23.2031 14.0467 22.5437 13.7951 21.9552L14.3551 21.3952C14.4709 21.2781 14.6096 21.1861 14.7625 21.1249C14.9155 21.0637 15.0794 21.0347 15.244 21.0396H16.5418C16.7063 21.0357 16.8698 21.0653 17.0226 21.1264C17.1754 21.1875 17.3142 21.2789 17.4307 21.3952L18.2662 22.2307C18.1061 22.746 18.1061 23.2977 18.2662 23.8129L18.6662 25.3774C18.9174 26.1513 19.4069 26.8259 20.0647 27.3049C20.7224 27.7838 21.5148 28.0426 22.3284 28.0441H23.5195C24.3332 28.0426 25.1255 27.7838 25.7833 27.3049C26.4411 26.8259 26.9305 26.1513 27.1818 25.3774L27.7062 23.8129C27.8662 23.3431 27.892 22.8379 27.7805 22.3542C27.669 21.8705 27.4247 21.4276 27.0751 21.0752Z" fill="#FF8900"/>
</svg>