<svg width="26" height="26" viewBox="0 0 26 26" fill="none" xmlns="http://www.w3.org/2000/svg">
<path d="M13 26C20.1797 26 26 20.1797 26 13C26 5.8203 20.1797 0 13 0C5.8203 0 0 5.8203 0 13C0 20.1797 5.8203 26 13 26Z" fill="#F0F0F0"/>
<path d="M26.0002 13.0001C26.0002 7.8461 23.0008 3.39279 18.6523 1.29004V24.7101C23.0008 22.6074 26.0002 18.1541 26.0002 13.0001V13.0001Z" fill="#D80027"/>
<path d="M0 13.0001C0 18.1541 2.99939 22.6074 7.34784 24.7101V1.29004C2.99939 3.39279 0 7.8461 0 13.0001Z" fill="#6DA544"/>
<path d="M9.6084 13.0001C9.6084 14.873 11.1268 16.3914 12.9997 16.3914C14.8727 16.3914 16.391 14.873 16.391 13.0001V11.8696H9.6084V13.0001Z" fill="#6DA544"/>
<path d="M17.522 10.7393H14.1307C14.1307 10.115 13.6246 9.60889 13.0003 9.60889C12.376 9.60889 11.8698 10.115 11.8698 10.7393H8.47852C8.47852 11.3637 9.02233 11.8698 9.64659 11.8698H9.60896C9.60896 12.4941 10.115 13.0002 10.7394 13.0002C10.7394 13.6246 11.2455 14.1307 11.8698 14.1307H14.1307C14.7551 14.1307 15.2612 13.6246 15.2612 13.0002C15.8855 13.0002 16.3916 12.4941 16.3916 11.8698H16.3539C16.9783 11.8698 17.522 11.3637 17.522 10.7393Z" fill="#FF9811"/>
</svg>
