<svg width="32" height="32" viewBox="0 0 32 32" fill="none" xmlns="http://www.w3.org/2000/svg">
	<path fill-rule="evenodd" clip-rule="evenodd" d="M7.11068 15.0221H1.77734C1.93959 12.0004 3.06143 9.10916 4.97975 6.7688C6.89808 4.42844 9.51289 2.76096 12.444 2.00879C9.37734 4.19546 7.27957 9.11101 7.11068 15.0221Z" fill="#FFC42A"/>
	<path fill-rule="evenodd" clip-rule="evenodd" d="M15.2264 2.39062V15.0217H8.63086C8.84419 8.51507 11.7064 3.07507 15.2264 2.39062Z" fill="#FF8900"/>
	<path fill-rule="evenodd" clip-rule="evenodd" d="M12.444 29.573C9.51486 28.8141 6.90285 27.1435 4.98545 24.8027C3.06805 22.4619 1.94457 19.572 1.77734 16.5508H7.11068C7.27957 22.4797 9.39512 27.3952 12.444 29.573Z" fill="#FFC42A"/>
	<path fill-rule="evenodd" clip-rule="evenodd" d="M15.2264 16.5508V29.173C11.6709 28.4708 8.84419 23.0397 8.63086 16.5508H15.2264Z" fill="#FF8900"/>
	<path fill-rule="evenodd" clip-rule="evenodd" d="M30.2216 15.7867C30.2249 16.6273 30.1505 17.4664 29.9994 18.2933H29.7328C29.336 18.2197 28.9442 18.1217 28.5594 18C27.4638 17.5442 26.4328 16.9465 25.4928 16.2222C25.359 16.1191 25.1949 16.0633 25.0261 16.0633C24.8573 16.0633 24.6932 16.1191 24.5594 16.2222L24.0083 16.64C22.9304 17.4794 21.6643 18.0438 20.3194 18.2844L19.6972 18.3822C19.5206 18.4153 19.3611 18.5087 19.2459 18.6466C19.1307 18.7845 19.0672 18.9581 19.0661 19.1378V24.3733C19.069 25.2614 19.2748 26.137 19.6676 26.9334C20.0604 27.7299 20.6299 28.4261 21.3328 28.9689C19.8743 29.573 18.3228 29.9218 16.7461 30V2.37333C19.635 2.94222 22.1505 6.67556 23.0305 11.84C23.0683 12.0392 23.1836 12.2153 23.3511 12.3295C23.5186 12.4436 23.7247 12.4866 23.9239 12.4489C24.1231 12.4112 24.2991 12.2959 24.4133 12.1283C24.5275 11.9608 24.5705 11.7548 24.5328 11.5556C23.7772 7.11111 21.9194 3.70667 19.555 2C22.6105 2.78894 25.3169 4.57172 27.248 7.06766C29.1791 9.56359 30.2252 12.6309 30.2216 15.7867Z" fill="#FFC42A"/>
	<path fill-rule="evenodd" clip-rule="evenodd" d="M29.4573 19.751V24.3465C29.4666 25.139 29.2521 25.918 28.8386 26.5941C28.4251 27.2702 27.8293 27.816 27.1196 28.1688L25.0218 29.1643C24.3284 28.8354 23.6084 28.5243 22.924 28.1688C22.2143 27.816 21.6185 27.2702 21.2049 26.5941C20.7914 25.918 20.577 25.139 20.5862 24.3465V19.751C22.2096 19.46 23.7362 18.773 25.0307 17.751C26.3419 18.7339 27.8531 19.4167 29.4573 19.751Z" fill="#FF8900"/>
</svg>