<svg width="26" height="26" viewBox="0 0 26 26" fill="none" xmlns="http://www.w3.org/2000/svg">
<path d="M13 26C20.1797 26 26 20.1797 26 13C26 5.8203 20.1797 0 13 0C5.8203 0 0 5.8203 0 13C0 20.1797 5.8203 26 13 26Z" fill="#338AF3"/>
<path d="M20.348 13.1414H5.65234C5.65234 14.1559 6.53599 14.9783 7.55045 14.9783H7.4893C7.4893 15.9929 8.31171 16.8153 9.32627 16.8153C9.32627 17.8298 10.1487 18.6522 11.1632 18.6522H14.8371C15.8517 18.6522 16.6741 17.8298 16.6741 16.8153C17.6887 16.8153 18.5111 15.9929 18.5111 14.9783H18.4499C19.4643 14.9783 20.348 14.1559 20.348 13.1414Z" fill="#FFDA44"/>
<path d="M18.087 10.7391C18.087 13.5486 15.8095 15.8261 13 15.8261C10.1906 15.8261 7.91309 13.5486 7.91309 10.7391" fill="#338AF3"/>
<path d="M16.8853 10.7391L15.2976 11.4859L16.1431 13.0236L14.4191 12.6937L14.2006 14.4353L12.9998 13.1544L11.7989 14.4353L11.5805 12.6937L9.85648 13.0235L10.7019 11.4858L9.11426 10.7391L10.7019 9.99227L9.85648 8.45467L11.5804 8.78444L11.799 7.04285L12.9998 8.3238L14.2007 7.04285L14.4191 8.78444L16.1431 8.45467L15.2977 9.99232L16.8853 10.7391Z" fill="#FFDA44"/>
</svg>
