<svg width="26" height="26" viewBox="0 0 26 26" fill="none" xmlns="http://www.w3.org/2000/svg">
<path d="M13 26C20.1797 26 26 20.1797 26 13C26 5.8203 20.1797 0 13 0C5.8203 0 0 5.8203 0 13C0 20.1797 5.8203 26 13 26Z" fill="#D80027"/>
<path d="M7.11445 7.91162L8.23672 11.3647H11.8676L8.93242 13.5026L10.0547 16.9558L7.11445 14.8229L4.17422 16.9558L5.30156 13.5026L2.36133 11.3647H5.99219L7.11445 7.91162Z" fill="#FFDA44"/>
<path d="M15.4117 20.1347L14.5535 19.0785L13.284 19.571L14.0203 18.4285L13.1621 17.3671L14.4773 17.7175L15.2187 16.575L15.2898 17.9359L16.6101 18.2863L15.3355 18.7738L15.4117 20.1347Z" fill="#FFDA44"/>
<path d="M17.118 17.0371L17.5242 15.7371L16.4121 14.95L17.773 14.9296L18.1742 13.6296L18.616 14.9195L19.977 14.9042L18.8852 15.7167L19.3219 17.0066L18.2098 16.2195L17.118 17.0371Z" fill="#FFDA44"/>
<path d="M19.4191 9.54165L18.8199 10.7655L19.7949 11.7151L18.4492 11.5221L17.85 12.7409L17.6164 11.4002L16.2656 11.2073L17.4742 10.5725L17.2406 9.22681L18.2156 10.1764L19.4191 9.54165Z" fill="#FFDA44"/>
<path d="M15.4469 5.83472L15.3453 7.19058L16.6098 7.70347L15.2844 8.02847L15.1879 9.3894L14.4719 8.23159L13.1465 8.55659L14.025 7.51558L13.3039 6.36284L14.5684 6.87573L15.4469 5.83472Z" fill="#FFDA44"/>
</svg>
