<svg width="26" height="26" viewBox="0 0 26 26" fill="none" xmlns="http://www.w3.org/2000/svg">
<path d="M13 26C20.1797 26 26 20.1797 26 13C26 5.8203 20.1797 0 13 0C5.8203 0 0 5.8203 0 13C0 20.1797 5.8203 26 13 26Z" fill="#FCFCFC"/>
<path d="M5.36909 12.058L3.95605 9.49444L5.36909 6.97107L6.78213 9.49444L5.36909 12.058Z" fill="#A2001D"/>
<path d="M2.54292 12.058L1.12988 9.49444L2.54292 6.97107L3.95596 9.49444L2.54292 12.058Z" fill="#A2001D"/>
<path d="M5.36909 19.0291L3.95605 16.4655L5.36909 13.9421L6.78213 16.4655L5.36909 19.0291Z" fill="#A2001D"/>
<path d="M2.54292 19.0291L1.12988 16.4655L2.54292 13.9421L3.95596 16.4655L2.54292 19.0291Z" fill="#A2001D"/>
<path d="M6.78178 2.52347L6.38173 1.80908C5.66419 2.23422 4.99118 2.72645 4.37109 3.27712L5.36874 5.08701L6.78178 2.52347Z" fill="#A2001D"/>
<path d="M5.36954 20.9131L4.36133 22.7136C4.98086 23.265 5.65341 23.758 6.37064 24.184L6.78263 23.4365L5.36954 20.9131Z" fill="#A2001D"/>
<path d="M7.91309 16.3914V24.9664C9.47557 25.6315 11.1947 26 13 26C18.5896 26 23.3546 22.4722 25.1915 17.5217L7.91309 16.3914Z" fill="#6DA544"/>
<path d="M25.1915 17.5217C25.714 16.1134 26 14.5902 26 13C26 5.82034 20.1797 0 13 0C11.1948 0 9.47557 0.368316 7.91309 1.0333V17.5218H25.1915V17.5217Z" fill="#A2001D"/>
</svg>
