<svg width="32" height="32" viewBox="0 0 32 32" fill="none" xmlns="http://www.w3.org/2000/svg">
	<path fill-rule="evenodd" clip-rule="evenodd" d="M29.0309 2.96845C28.2691 2.20731 27.2367 1.77901 26.1598 1.77734H5.83981C5.30635 1.77734 4.77812 1.88242 4.28527 2.08656C3.79241 2.29071 3.3446 2.58993 2.96739 2.96714C2.20557 3.72896 1.77759 4.7622 1.77759 5.83957V10.4885H30.222V5.83957C30.2222 5.30616 30.117 4.77798 29.9126 4.2853C29.7082 3.79261 29.4086 3.34511 29.0309 2.96845ZM6.60425 7.36845C6.45306 7.36845 6.30526 7.32362 6.17955 7.23962C6.05384 7.15562 5.95586 7.03623 5.898 6.89655C5.84014 6.75687 5.825 6.60316 5.8545 6.45487C5.884 6.30659 5.9568 6.17038 6.06371 6.06347C6.17062 5.95656 6.30683 5.88375 6.45512 5.85425C6.60341 5.82476 6.75711 5.8399 6.89679 5.89776C7.03648 5.95562 7.15587 6.0536 7.23987 6.17931C7.32386 6.30502 7.3687 6.45282 7.3687 6.60401C7.3687 6.7044 7.34893 6.8038 7.31051 6.89655C7.27209 6.9893 7.21578 7.07357 7.1448 7.14455C7.07381 7.21554 6.98954 7.27185 6.89679 7.31026C6.80405 7.34868 6.70464 7.36845 6.60425 7.36845ZM10.6665 7.36845C10.5153 7.36845 10.3675 7.32362 10.2418 7.23962C10.1161 7.15562 10.0181 7.03623 9.96022 6.89655C9.90236 6.75687 9.88723 6.60316 9.91672 6.45487C9.94622 6.30659 10.019 6.17038 10.1259 6.06347C10.2328 5.95656 10.3691 5.88375 10.5173 5.85425C10.6656 5.82476 10.8193 5.8399 10.959 5.89776C11.0987 5.95562 11.2181 6.0536 11.3021 6.17931C11.3861 6.30502 11.4309 6.45282 11.4309 6.60401C11.4309 6.7044 11.4111 6.8038 11.3727 6.89655C11.3343 6.9893 11.278 7.07357 11.207 7.14455C11.136 7.21554 11.0518 7.27185 10.959 7.31026C10.8663 7.34868 10.7669 7.36845 10.6665 7.36845ZM25.3954 7.36845H20.3198C20.2131 7.38001 20.1052 7.36897 20.003 7.33604C19.9008 7.30312 19.8068 7.24905 19.7269 7.17736C19.647 7.10566 19.5831 7.01795 19.5394 6.91994C19.4957 6.82192 19.4731 6.71579 19.4731 6.60845C19.4731 6.50112 19.4957 6.39499 19.5394 6.29697C19.5831 6.19896 19.647 6.11125 19.7269 6.03955C19.8068 5.96786 19.9008 5.91379 20.003 5.88087C20.1052 5.84794 20.2131 5.8369 20.3198 5.84845H25.3954C25.5021 5.8369 25.61 5.84794 25.7122 5.88087C25.8143 5.91379 25.9084 5.96786 25.9883 6.03955C26.0682 6.11125 26.1321 6.19896 26.1758 6.29697C26.2195 6.39499 26.2421 6.50112 26.2421 6.60845C26.2421 6.71579 26.2195 6.82192 26.1758 6.91994C26.1321 7.01795 26.0682 7.10566 25.9883 7.17736C25.9084 7.24905 25.8143 7.30312 25.7122 7.33604C25.61 7.36897 25.5021 7.38001 25.3954 7.36845Z" fill="#FFC42A"/>
	<path fill-rule="evenodd" clip-rule="evenodd" d="M1.77735 12.017V19.9726H13.964C14.0707 19.961 14.1787 19.972 14.2808 20.005C14.383 20.0379 14.4771 20.092 14.5569 20.1637C14.6368 20.2353 14.7007 20.3231 14.7444 20.4211C14.7882 20.5191 14.8108 20.6252 14.8108 20.7326C14.8108 20.8399 14.7882 20.946 14.7444 21.044C14.7007 21.1421 14.6368 21.2298 14.5569 21.3015C14.4771 21.3732 14.383 21.4272 14.2808 21.4601C14.1787 21.4931 14.0707 21.5041 13.964 21.4926H1.77735V26.1414C1.77618 26.6761 1.88033 27.2057 2.08384 27.7001C2.28736 28.1944 2.58625 28.6439 2.96347 29.0228C3.34068 29.4016 3.78882 29.7025 4.2823 29.9082C4.77579 30.1138 5.30495 30.2203 5.83958 30.2214H22.844L21.7596 29.7148C20.7557 29.2313 19.9087 28.4743 19.3158 27.5308C18.723 26.5873 18.4085 25.4957 18.4085 24.3814V18.9592C18.4082 18.7778 18.4724 18.6022 18.5896 18.4638C18.7068 18.3254 18.8695 18.2332 19.0485 18.2037C20.9151 17.9076 22.6781 17.1499 24.1774 15.9992C24.3075 15.9078 24.4627 15.8588 24.6218 15.8588C24.7809 15.8588 24.9361 15.9078 25.0662 15.9992C26.5805 17.1414 28.3499 17.898 30.2218 18.2037V11.9814L1.77735 12.017ZM6.60402 16.7548C6.45245 16.7548 6.30431 16.7097 6.17841 16.6253C6.05251 16.5409 5.95454 16.421 5.89696 16.2808C5.83937 16.1406 5.82476 15.9864 5.85498 15.8379C5.8852 15.6894 5.9589 15.5532 6.0667 15.4466C6.1745 15.3401 6.31154 15.268 6.46041 15.2395C6.60928 15.211 6.76325 15.2274 6.90277 15.2867C7.04229 15.3459 7.16106 15.4453 7.24398 15.5721C7.3269 15.699 7.37023 15.8477 7.36846 15.9992C7.36613 16.2004 7.28455 16.3926 7.14145 16.534C6.99834 16.6755 6.80523 16.7548 6.60402 16.7548ZM10.6662 16.7548C10.515 16.7548 10.3673 16.7099 10.2415 16.6259C10.1158 16.5419 10.0178 16.4226 9.95999 16.2829C9.90213 16.1432 9.88699 15.9895 9.91649 15.8412C9.94598 15.6929 10.0188 15.5567 10.1257 15.4498C10.2326 15.3429 10.3688 15.2701 10.5171 15.2406C10.6654 15.2111 10.8191 15.2262 10.9588 15.2841C11.0985 15.3419 11.2179 15.4399 11.3019 15.5656C11.3859 15.6913 11.4307 15.8391 11.4307 15.9903C11.4307 16.1931 11.3501 16.3875 11.2068 16.5309C11.0634 16.6742 10.869 16.7548 10.6662 16.7548ZM6.60402 26.1503C6.45283 26.1503 6.30503 26.1055 6.17932 26.0215C6.05361 25.9375 5.95562 25.8181 5.89777 25.6784C5.83991 25.5387 5.82477 25.385 5.85426 25.2368C5.88376 25.0885 5.95657 24.9523 6.06348 24.8453C6.17039 24.7384 6.3066 24.6656 6.45488 24.6361C6.60317 24.6066 6.75688 24.6218 6.89656 24.6796C7.03624 24.7375 7.15563 24.8355 7.23963 24.9612C7.32363 25.0869 7.36846 25.2347 7.36846 25.3859C7.36846 25.4863 7.34869 25.5857 7.31027 25.6784C7.27186 25.7712 7.21555 25.8554 7.14456 25.9264C7.07358 25.9974 6.98931 26.0537 6.89656 26.0921C6.80381 26.1306 6.70441 26.1503 6.60402 26.1503ZM10.6662 26.1503C10.515 26.1503 10.3673 26.1055 10.2415 26.0215C10.1158 25.9375 10.0178 25.8181 9.95999 25.6784C9.90213 25.5387 9.88699 25.385 9.91649 25.2368C9.94598 25.0885 10.0188 24.9523 10.1257 24.8453C10.2326 24.7384 10.3688 24.6656 10.5171 24.6361C10.6654 24.6066 10.8191 24.6218 10.9588 24.6796C11.0985 24.7375 11.2179 24.8355 11.3019 24.9612C11.3859 25.0869 11.4307 25.2347 11.4307 25.3859C11.4307 25.5886 11.3501 25.7831 11.2068 25.9264C11.0634 26.0698 10.869 26.1503 10.6662 26.1503Z" fill="#FFC42A"/>
	<path fill-rule="evenodd" clip-rule="evenodd" d="M29.3342 19.5546V24.3279C29.339 25.157 29.1086 25.9704 28.6696 26.6737C28.2306 27.377 27.6011 27.9414 26.8542 28.3013L24.632 29.3502L22.4098 28.3013C21.6629 27.9414 21.0334 27.377 20.5944 26.6737C20.1554 25.9704 19.9249 25.157 19.9298 24.3279V19.5546C21.6249 19.1962 23.2265 18.4877 24.632 17.4746C26.0496 18.4665 27.6467 19.1729 29.3342 19.5546Z" fill="#FF8900"/>
</svg>