<svg width="26" height="26" viewBox="0 0 26 26" fill="none" xmlns="http://www.w3.org/2000/svg">
<g clip-path="url(#clip0_11101_269)">
<path d="M0.80859 8.4781C0.286051 9.88646 0 11.4096 0 12.9998C0 14.59 0.286051 16.1133 0.80859 17.5215L13 18.652L25.1914 17.5215C25.7139 16.1133 26 14.59 26 12.9998C26 11.4096 25.7139 9.88646 25.1914 8.4781L13 7.34766L0.80859 8.4781Z" fill="#F0F0F0"/>
<path d="M13 0C7.41046 0 2.64535 3.52787 0.808594 8.47828H25.1915C23.3546 3.52787 18.5895 0 13 0Z" fill="#D80027"/>
<path d="M13 25.9998C18.5895 25.9998 23.3546 22.4719 25.1914 17.5215H0.808594C2.64535 22.4719 7.41046 25.9998 13 25.9998Z" fill="#6DA544"/>
</g>
<defs>
<clipPath id="clip0_11101_269">
<rect width="26" height="26" fill="white"/>
</clipPath>
</defs>
</svg>
