<svg width="26" height="26" viewBox="0 0 26 26" fill="none" xmlns="http://www.w3.org/2000/svg">
<g clip-path="url(#clip0_11101_302)">
<path d="M13 26C20.1797 26 26 20.1797 26 13C26 5.8203 20.1797 0 13 0C5.8203 0 0 5.8203 0 13C0 20.1797 5.8203 26 13 26Z" fill="#F0F0F0"/>
<path d="M17.8954 10.1737H14.632L13.0004 7.34766L11.3689 10.1737H8.10547L9.73727 12.9998L8.10547 15.8259H11.3689L13.0004 18.652L14.632 15.8259H17.8954L16.2636 12.9998L17.8954 10.1737ZM15.005 12.9998L14.0028 14.7359H11.9982L10.9958 12.9998L11.9982 11.2637H14.0027L15.005 12.9998ZM13.0004 9.52754L13.3735 10.1737H12.6275L13.0004 9.52754ZM9.99347 11.2637H10.7395L10.3665 11.9098L9.99347 11.2637ZM9.99347 14.7359L10.3666 14.0898L10.7396 14.7359H9.99347ZM13.0004 16.472L12.6274 15.8259H13.3735L13.0004 16.472ZM16.0074 14.7359H15.2613L15.6344 14.0898L16.0074 14.7359ZM15.2613 11.2637H16.0074L15.6343 11.9098L15.2613 11.2637Z" fill="#0052B4"/>
<path d="M21.0925 2.82617H4.9078C3.7214 3.77111 2.70395 4.91887 1.9082 6.2175H24.0921C23.2963 4.91892 22.2788 3.77111 21.0925 2.82617Z" fill="#0052B4"/>
<path d="M4.9078 23.1745H21.0924C22.2788 22.2296 23.2963 21.0818 24.092 19.7832H1.9082C2.704 21.0818 3.72145 22.2296 4.9078 23.1745Z" fill="#0052B4"/>
</g>
<defs>
<clipPath id="clip0_11101_302">
<rect width="26" height="26" fill="white"/>
</clipPath>
</defs>
</svg>
