<svg width="26" height="26" viewBox="0 0 26 26" fill="none" xmlns="http://www.w3.org/2000/svg">
<g clip-path="url(#clip0_102_2)">
<path d="M13 26C20.1797 26 26 20.1797 26 13C26 5.8203 20.1797 0 13 0C5.8203 0 0 5.8203 0 13C0 20.1797 5.8203 26 13 26Z" fill="#F0F0F0"/>
<path d="M0.447754 16.3916C1.19993 19.1825 2.85768 21.6014 5.08687 23.3142V16.3916H0.447754Z" fill="#D80027"/>
<path d="M11.8696 25.9508C12.2423 25.9829 12.6191 26.0003 13.0001 26.0003C19.0064 26.0003 24.0605 21.9266 25.5522 16.3916H11.8696V25.9508Z" fill="#D80027"/>
<path d="M25.5522 9.60868C24.0605 4.07372 19.0064 0 13.0001 0C12.6191 0 12.2423 0.0173672 11.8696 0.0494609V9.60868H25.5522Z" fill="#D80027"/>
<path d="M5.08687 2.68652C2.85768 4.39937 1.19993 6.81824 0.447754 9.60912H5.08687V2.68652Z" fill="#D80027"/>
<path d="M25.89 11.304H10.174H10.1739V0.308594C8.97254 0.574992 7.83357 1.00679 6.7826 1.58026V11.3039V11.3039H0.110043C0.0376797 11.859 0 12.4249 0 12.9996C0 13.5743 0.0376797 14.1402 0.110043 14.6952H6.78255H6.7826V24.4189C7.83357 24.9923 8.97254 25.4242 10.1739 25.6905V14.6954V14.6953H25.89C25.9622 14.1402 26 13.5743 26 12.9996C26 12.4249 25.9622 11.859 25.89 11.304V11.304Z" fill="#0052B4"/>
</g>
<defs>
<clipPath id="clip0_102_2">
<rect width="26" height="26" fill="white"/>
</clipPath>
</defs>
</svg>
