<svg width="27" height="26" viewBox="0 0 27 26" fill="none" xmlns="http://www.w3.org/2000/svg">
<g clip-path="url(#clip0)">
<path d="M24.246 8.39475C24.246 8.15967 24.237 7.93108 24.2258 7.70575C25.3238 6.955 26.2474 6.01792 27 4.93892V4.93783C25.9954 5.36142 24.9266 5.64308 23.8106 5.77958C24.9581 5.11983 25.8345 4.08308 26.2462 2.834C25.1764 3.44825 23.9951 3.88158 22.7362 4.12425C21.7204 3.08208 20.2725 2.4375 18.693 2.4375C15.6285 2.4375 13.1614 4.83275 13.1614 7.76858C13.1614 8.19108 13.1985 8.59733 13.2896 8.98408C8.68837 8.76742 4.61587 6.64408 1.87988 3.40817C1.40288 4.20658 1.12162 5.11983 1.12162 6.10242C1.12162 7.94842 2.10825 9.58425 3.58088 10.5322C2.691 10.5159 1.81912 10.2668 1.08 9.87567V9.93417C1.08 12.5244 2.99812 14.6759 5.51475 15.1721C4.66875 15.3953 3.627 15.3866 3.01612 15.2566C3.73275 17.3669 5.769 18.9193 8.18775 18.9703C6.3045 20.3883 3.91275 21.2431 1.32413 21.2431C0.87075 21.2431 0.435375 21.2236 0 21.1705C2.4525 22.6926 5.35725 23.5625 8.4915 23.5625C18.6772 23.5625 24.246 15.4375 24.246 8.39475V8.39475Z" fill="#55ACEE"/>
</g>
<defs>
<clipPath id="clip0">
<rect width="27" height="26" fill="white"/>
</clipPath>
</defs>
</svg>
