<svg width="26" height="26" viewBox="0 0 26 26" fill="none" xmlns="http://www.w3.org/2000/svg">
<g clip-path="url(#clip0)">
<path d="M13 26C20.1797 26 26 20.1797 26 13C26 5.8203 20.1797 0 13 0C5.8203 0 0 5.8203 0 13C0 20.1797 5.8203 26 13 26Z" fill="#F0F0F0"/>
<path d="M13.0001 0C7.8461 0 3.39279 2.99939 1.29004 7.34784H24.7101C22.6074 2.99939 18.154 0 13.0001 0Z" fill="#FF9811"/>
<path d="M13.0001 26.0001C18.154 26.0001 22.6074 23.0007 24.7101 18.6522H1.29004C3.39279 23.0007 7.8461 26.0001 13.0001 26.0001Z" fill="#6DA544"/>
<path d="M12.9993 17.5217C15.4965 17.5217 17.521 15.4973 17.521 13C17.521 10.5027 15.4965 8.47827 12.9993 8.47827C10.502 8.47827 8.47754 10.5027 8.47754 13C8.47754 15.4973 10.502 17.5217 12.9993 17.5217Z" fill="#0052B4"/>
<path d="M12.9999 15.8261C14.5607 15.8261 15.826 14.5608 15.826 13C15.826 11.4392 14.5607 10.174 12.9999 10.174C11.4391 10.174 10.1738 11.4392 10.1738 13C10.1738 14.5608 11.4391 15.8261 12.9999 15.8261Z" fill="#F0F0F0"/>
<path d="M12.9996 9.5127L13.8715 11.49L16.0197 11.2564L14.7433 13L16.0197 14.7437L13.8715 14.5101L12.9996 16.4874L12.1277 14.5101L9.97949 14.7437L11.2559 13L9.97949 11.2564L12.1277 11.49L12.9996 9.5127Z" fill="#0052B4"/>
</g>
<defs>
<clipPath id="clip0">
<rect width="26" height="26" fill="white"/>
</clipPath>
</defs>
</svg>
