<svg width="26" height="26" viewBox="0 0 26 26" fill="none" xmlns="http://www.w3.org/2000/svg">
<g clip-path="url(#clip0_220_58)">
<path d="M12.7604 0.0209961C5.71318 0.0209961 0 5.83208 0 13.0003C0 20.1688 5.71318 25.9794 12.7604 25.9794C19.8084 25.9794 25.521 20.1688 25.521 13.0003C25.521 5.83254 19.8084 0.0216161 12.7603 0.0216161L12.7604 0.0209961V0.0209961ZM18.6123 18.7408C18.5578 18.8316 18.4863 18.9105 18.4018 18.9731C18.3173 19.0357 18.2215 19.0808 18.1199 19.1057C18.0183 19.1306 17.9128 19.1349 17.8096 19.1183C17.7063 19.1017 17.6073 19.0645 17.5182 19.009C14.5222 17.1475 10.7506 16.7259 6.30882 17.7582C6.10315 17.8057 5.88732 17.7683 5.70877 17.6541C5.53022 17.5399 5.40356 17.3582 5.35662 17.1491C5.33325 17.0455 5.33018 16.9383 5.34761 16.8335C5.36504 16.7287 5.40261 16.6285 5.45818 16.5385C5.51375 16.4485 5.58622 16.3706 5.67145 16.3091C5.75667 16.2477 5.85298 16.2039 5.95485 16.1804C10.8156 15.0508 14.9851 15.5372 18.3487 17.628C18.7235 17.862 18.8424 18.3595 18.6123 18.7408V18.7408ZM20.1741 15.2067C19.8861 15.6828 19.2736 15.8332 18.8058 15.5403C15.3758 13.3958 10.1473 12.7747 6.09031 14.0274C5.56416 14.189 5.00844 13.8874 4.84875 13.3532C4.77256 13.0963 4.79961 12.8192 4.92398 12.5826C5.04835 12.346 5.25988 12.1693 5.5122 12.0911C10.1464 10.6608 15.9076 11.3536 19.8465 13.8157C20.3143 14.1086 20.4621 14.7317 20.1741 15.2069V15.2067ZM20.3082 11.5266C16.1956 9.04194 9.41028 8.81349 5.48371 10.0257C4.85317 10.2202 4.18638 9.85812 3.9953 9.21677C3.90342 8.90864 3.93561 8.576 4.0848 8.29201C4.23398 8.00802 4.48795 7.79592 4.79085 7.70235C9.29828 6.31053 16.7914 6.57944 21.5263 9.43856C21.6612 9.51976 21.7791 9.62725 21.8732 9.75485C21.9672 9.88246 22.0356 10.0277 22.0744 10.1822C22.1131 10.3367 22.1216 10.4975 22.0992 10.6554C22.0768 10.8132 22.024 10.965 21.9438 11.1021C21.6086 11.679 20.8741 11.8691 20.3088 11.5266H20.3082ZM34.7169 12.0027C32.5135 11.4683 32.1219 11.0932 32.1219 10.3051C32.1219 9.56054 32.8107 9.05946 33.8361 9.05946C34.8296 9.05946 35.814 9.43996 36.8471 10.2233C36.8776 10.247 36.9172 10.2565 36.9553 10.2503C36.9744 10.2475 36.9928 10.2407 37.0093 10.2304C37.0259 10.2201 37.0401 10.2065 37.0513 10.1904L38.127 8.64795C38.1483 8.61737 38.1573 8.5797 38.1522 8.54262C38.1471 8.50553 38.1283 8.47181 38.0996 8.44833C36.8699 7.44507 35.4864 6.95731 33.8681 6.95731C31.4896 6.95731 29.8271 8.40942 29.8271 10.4871C29.8271 12.7151 31.261 13.504 33.7386 14.1129C35.846 14.6069 36.2025 15.0207 36.2025 15.7603C36.2025 16.5802 35.4833 17.0902 34.3253 17.0902C33.0392 17.0902 31.9893 16.6484 30.8161 15.6162C30.7868 15.591 30.7492 15.5783 30.7109 15.5806C30.6713 15.5836 30.6362 15.6022 30.6119 15.6317L29.405 17.0917C29.3548 17.1537 29.3609 17.2436 29.4188 17.2963C30.7841 18.5362 32.4632 19.1903 34.2765 19.1903C36.8395 19.1903 38.4958 17.7659 38.4958 15.5604C38.5004 13.6994 37.4048 12.6687 34.7214 12.0048L34.7169 12.0027ZM44.2952 9.79256C43.1844 9.79256 42.2732 10.2377 41.5205 11.1498V10.1232C41.5206 10.0843 41.5056 10.047 41.4788 10.0195C41.4519 9.99189 41.4154 9.97628 41.3772 9.97607H39.404C39.3247 9.97607 39.2607 10.0421 39.2607 10.1232V21.5307C39.2607 21.6113 39.3247 21.6779 39.404 21.6779H41.3772C41.4565 21.6779 41.5205 21.6113 41.5205 21.5307V17.9302C42.2732 18.7873 43.1844 19.2073 44.2952 19.2073C46.3599 19.2073 48.4505 17.5908 48.4505 14.5004C48.4536 11.4094 46.363 9.79241 44.2968 9.79241L44.2952 9.79256ZM46.1557 14.5004C46.1557 16.0734 45.2034 17.1723 43.8381 17.1723C42.4896 17.1723 41.4717 16.0238 41.4717 14.5004C41.4717 12.9769 42.4896 11.8287 43.8381 11.8287C45.1805 11.8285 46.1557 12.9519 46.1557 14.5003V14.5004ZM53.8065 9.79256C51.1476 9.79256 49.0646 11.875 49.0646 14.5341C49.0646 17.1646 51.1339 19.2244 53.7745 19.2244C56.4426 19.2244 58.5317 17.1491 58.5317 14.5004C58.5317 11.8608 56.4564 9.79287 53.8065 9.79287V9.79256ZM53.8065 17.1878C52.3925 17.1878 51.3259 16.0316 51.3259 14.4996C51.3259 12.9607 52.3559 11.844 53.7745 11.844C55.1977 11.844 56.2705 12.9998 56.2705 14.5333C56.2705 16.0719 55.2343 17.1878 53.8065 17.1878V17.1878ZM64.2092 9.97607H62.0379V7.71847C62.038 7.69926 62.0343 7.68022 62.0272 7.66243C62.02 7.64465 62.0095 7.62848 61.9962 7.61483C61.9829 7.60119 61.9671 7.59034 61.9496 7.58292C61.9322 7.57549 61.9135 7.57162 61.8947 7.57154H59.9214C59.8421 7.57154 59.7766 7.63757 59.7766 7.71847V9.97607H58.8288C58.7496 9.97607 58.6856 10.0421 58.6856 10.1232V11.8477C58.6856 11.9287 58.7496 11.9948 58.8288 11.9948H59.7766V16.4578C59.7766 18.2603 60.6589 19.1748 62.4005 19.1748C63.1076 19.1748 63.6942 19.026 64.2473 18.7067C64.293 18.6819 64.3205 18.6323 64.3205 18.5796V16.9367C64.3205 16.8871 64.2946 16.8391 64.2519 16.8127C64.2311 16.7992 64.2073 16.7915 64.1826 16.7905C64.158 16.7894 64.1336 16.7949 64.1117 16.8065C63.7323 17.0003 63.3651 17.0902 62.9537 17.0902C62.3213 17.0902 62.0379 16.7972 62.0379 16.1432V11.9956H64.2092C64.2885 11.9956 64.3525 11.9296 64.3525 11.8485V10.1241C64.3531 10.1048 64.3499 10.0857 64.3431 10.0677C64.3362 10.0498 64.3258 10.0334 64.3126 10.0197C64.2993 10.0059 64.2835 9.99506 64.266 9.98772C64.2485 9.98039 64.2297 9.97674 64.2108 9.977L64.2092 9.97607ZM71.7732 9.98491V9.70763C71.7732 8.89191 72.081 8.52815 72.7697 8.52815C73.1811 8.52815 73.5118 8.61122 73.8821 8.73676C73.9278 8.75133 73.975 8.74405 74.0116 8.71631C74.0301 8.70269 74.0452 8.68475 74.0556 8.66398C74.0659 8.64322 74.0712 8.62024 74.071 8.59696V6.90601C74.0714 6.87443 74.0616 6.84359 74.0432 6.81817C74.0247 6.79274 73.9987 6.77412 73.9689 6.76512C73.5788 6.64686 73.079 6.52551 72.3294 6.52551C70.5085 6.52551 69.5439 7.56922 69.5439 9.54272V9.96739H68.5961C68.5169 9.96739 68.4514 10.0334 68.4514 10.1143V11.8477C68.4514 11.9287 68.5169 11.9948 68.5961 11.9948H69.5439V18.8772C69.5439 18.9594 69.6094 19.0245 69.6887 19.0245H71.6604C71.7412 19.0245 71.8052 18.9594 71.8052 18.8772V11.9953H73.6474L76.4694 18.8772C76.1494 19.5995 75.834 19.7436 75.4043 19.7436C75.0569 19.7436 74.6897 19.6382 74.3163 19.429C74.281 19.4108 74.2401 19.4069 74.2021 19.4181C74.164 19.4321 74.132 19.46 74.1167 19.4972L73.4478 20.9897C73.4158 21.061 73.4432 21.1432 73.5103 21.1804C74.2081 21.5648 74.8375 21.729 75.6161 21.729C77.0728 21.729 77.8789 21.0378 78.5874 19.181L82.0098 10.1858C82.0187 10.1635 82.022 10.1394 82.0193 10.1155C82.0167 10.0917 82.0081 10.0689 81.9946 10.0492C81.9817 10.0296 81.9642 10.0135 81.9438 10.0023C81.9233 9.99117 81.9005 9.98535 81.8772 9.98537H79.8232C79.7607 9.98537 79.7059 10.0252 79.6861 10.0839L77.5818 16.1959L75.2778 10.0799C75.2675 10.0522 75.2492 10.0283 75.2252 10.0114C75.2013 9.99455 75.1729 9.98546 75.1437 9.98537H71.7732V9.98491ZM67.3878 9.97607H65.4145C65.3353 9.97607 65.2698 10.0421 65.2698 10.1232V18.8772C65.2698 18.9594 65.3353 19.0245 65.4145 19.0245H67.3878C67.467 19.0245 67.5326 18.9594 67.5326 18.8772V10.1238C67.5326 10.1044 67.5289 10.0853 67.5216 10.0674C67.5144 10.0495 67.5037 10.0333 67.4902 10.0196C67.4768 10.006 67.4608 9.99513 67.4432 9.98776C67.4257 9.98039 67.4068 9.97663 67.3878 9.97669V9.97607ZM66.4126 5.98986C65.6309 5.98986 64.997 6.63338 64.997 7.42833C64.997 8.22374 65.6309 8.86804 66.4126 8.86804C67.1943 8.86804 67.8266 8.22374 67.8266 7.42833C67.8266 6.63354 67.1928 5.98986 66.4126 5.98986ZM83.6951 12.7909C82.9149 12.7909 82.3069 12.1531 82.3069 11.3786C82.3069 10.6041 82.9225 9.95902 83.7027 9.95902C84.4829 9.95902 85.0908 10.5967 85.0908 11.3705C85.0908 12.145 84.4752 12.7909 83.6951 12.7909ZM83.7027 10.0994C82.9911 10.0994 82.4532 10.6745 82.4532 11.3786C82.4532 12.0824 82.9881 12.6497 83.6951 12.6497C84.4067 12.6497 84.9446 12.0751 84.9446 11.3705C84.9446 10.6667 84.4097 10.0994 83.7027 10.0994V10.0994ZM84.0105 11.5158L84.4036 12.075H84.0714L83.7179 11.5619H83.4147V12.075H83.1374V10.5926H83.7865C84.1263 10.5926 84.3488 10.7689 84.3488 11.0655C84.3503 11.3085 84.2116 11.457 84.012 11.5158H84.0105ZM83.7758 10.847H83.4147V11.3158H83.7758C83.9556 11.3158 84.0638 11.2261 84.0638 11.0812C84.0638 10.9286 83.9556 10.847 83.7758 10.847V10.847Z" fill="#1ED760"/>
</g>
<defs>
<clipPath id="clip0_220_58">
<rect width="26" height="26" fill="white"/>
</clipPath>
</defs>
</svg>
