<svg width="26" height="26" viewBox="0 0 26 26" fill="none" xmlns="http://www.w3.org/2000/svg">
<g clip-path="url(#clip0)">
<path d="M26 13C26 11.4099 25.714 9.8866 25.1914 8.47833L13 7.91309L0.80859 8.47828C0.286051 9.8866 0 11.4099 0 13C0 14.5902 0.286051 16.1135 0.80859 17.5218L13 18.087L25.1914 17.5218C25.714 16.1135 26 14.5902 26 13Z" fill="#496E2D"/>
<path d="M13 26C18.5895 26 23.3546 22.4721 25.1914 17.5217H0.808594C2.6454 22.4721 7.41046 26 13 26Z" fill="#D80027"/>
<path d="M0.808594 8.47828H25.1915C23.3546 3.52787 18.5895 0 13 0C7.41046 0 2.6454 3.52787 0.808594 8.47828Z" fill="#F0F0F0"/>
</g>
<defs>
<clipPath id="clip0">
<rect width="26" height="26" fill="white"/>
</clipPath>
</defs>
</svg>
