<svg width="26" height="26" viewBox="0 0 26 26" fill="none" xmlns="http://www.w3.org/2000/svg">
<g clip-path="url(#clip0_107_15)">
<path d="M13 25.999C20.1797 25.999 26 20.1787 26 12.999C26 5.81932 20.1797 -0.000976562 13 -0.000976562C5.8203 -0.000976562 0 5.81932 0 12.999C0 20.1787 5.8203 25.999 13 25.999Z" fill="#F0F0F0"/>
<path d="M17.5217 12.999C17.5217 14.1295 15.4973 16.9555 13 16.9555C10.5027 16.9555 8.47827 14.1295 8.47827 12.999C8.47827 10.5017 10.5027 8.47729 13 8.47729C15.4973 8.47729 17.5217 10.5017 17.5217 12.999Z" fill="#D80027"/>
<path d="M17.5217 12.999C17.5217 15.4963 15.4973 17.5207 13 17.5207C10.5027 17.5207 8.47827 15.4963 8.47827 12.999" fill="#0052B4"/>
<path d="M17.7925 16.9959L18.9913 15.7971L19.7905 16.5963L18.5917 17.7951L17.7925 16.9959Z" fill="black"/>
<path d="M15.7939 18.994L16.9928 17.7952L17.792 18.5944L16.5932 19.7932L15.7939 18.994Z" fill="black"/>
<path d="M20.1902 19.3934L21.389 18.1946L22.1882 18.9938L20.9894 20.1927L20.1902 19.3934Z" fill="black"/>
<path d="M18.1917 21.3918L19.3905 20.193L20.1897 20.9923L18.9909 22.1911L18.1917 21.3918Z" fill="black"/>
<path d="M18.9912 18.1948L20.19 16.9959L20.9892 17.7952L19.7904 18.994L18.9912 18.1948Z" fill="black"/>
<path d="M16.9932 20.1929L18.192 18.994L18.9912 19.7933L17.7924 20.9921L16.9932 20.1929Z" fill="black"/>
<path d="M20.1956 9.00433L16.9987 5.80748L17.7979 5.00826L20.9948 8.20511L20.1956 9.00433Z" fill="black"/>
<path d="M16.998 8.20544L15.7992 7.00663L16.5984 6.20745L17.7972 7.40626L16.998 8.20544Z" fill="black"/>
<path d="M18.9961 10.204L17.7973 9.00516L18.5965 8.20598L19.7953 9.40479L18.9961 10.204Z" fill="black"/>
<path d="M19.3955 5.80737L18.1967 4.60856L18.9959 3.80933L20.1947 5.00815L19.3955 5.80737Z" fill="black"/>
<path d="M21.3948 7.80615L20.196 6.60734L20.9952 5.80811L22.194 7.00693L21.3948 7.80615Z" fill="black"/>
<path d="M4.60864 18.1925L7.80549 21.3893L7.00627 22.1886L3.80942 18.9917L4.60864 18.1925Z" fill="black"/>
<path d="M7.80542 18.9911L9.00423 20.1899L8.20505 20.9891L7.00624 19.7903L7.80542 18.9911Z" fill="black"/>
<path d="M5.80713 16.9935L7.00594 18.1923L6.20672 18.9915L5.00791 17.7927L5.80713 16.9935Z" fill="black"/>
<path d="M7.0061 15.7943L10.203 18.9912L9.40374 19.7904L6.20688 16.5935L7.0061 15.7943Z" fill="black"/>
<path d="M7.80518 4.60608L4.60833 7.80293L3.8091 7.00371L7.00595 3.80686L7.80518 4.60608Z" fill="black"/>
<path d="M9.00391 5.80475L5.80706 9.00161L5.00783 8.20238L8.20468 5.00553L9.00391 5.80475Z" fill="black"/>
<path d="M10.2039 7.00433L7.00701 10.2012L6.20782 9.402L9.40467 6.20515L10.2039 7.00433Z" fill="black"/>
</g>
<defs>
<clipPath id="clip0_107_15">
<rect width="26" height="26" fill="white" transform="translate(0 -0.000976562)"/>
</clipPath>
</defs>
</svg>
