<svg width="26" height="26" viewBox="0 0 26 26" fill="none" xmlns="http://www.w3.org/2000/svg">
<path d="M0.437121 13.2604C0.263787 6.32704 5.72379 0.607036 12.6571 0.433703C19.5905 0.260369 25.3105 5.72037 25.4838 12.6537C25.4838 12.9137 25.4838 13.087 25.4838 13.347C25.3105 20.2804 19.5038 25.7404 12.5705 25.567C5.98379 25.307 0.610454 19.9337 0.437121 13.2604Z" fill="#FF4500"/>
<path d="M20.2834 14.9069C20.2834 15.0802 20.2834 15.2536 20.2834 15.4269C20.2834 18.2869 16.9901 20.5402 12.9167 20.5402C8.84339 20.5402 5.55005 18.2869 5.55005 15.4269C5.55005 15.2536 5.55005 15.0802 5.55005 14.9069C4.59672 14.4736 4.25005 13.4336 4.59672 12.4802C4.85672 11.7869 5.55005 11.3536 6.24339 11.4402C6.76339 11.4402 7.19672 11.6136 7.54339 11.9602C9.01672 11.0069 10.7501 10.4002 12.4834 10.4002L13.4367 6.06691C13.4367 5.98024 13.5234 5.89358 13.5234 5.89358C13.6101 5.80691 13.6967 5.80691 13.7834 5.80691L16.8167 6.50024C17.1634 5.89358 17.9434 5.54691 18.5501 5.89358C19.1567 6.24024 19.5034 7.02024 19.1567 7.62691C18.8101 8.23358 18.0301 8.58024 17.4234 8.23358C16.9901 8.06024 16.7301 7.62691 16.7301 7.10691L14.0434 6.50024L13.1767 10.4002C15.0834 10.4869 16.8167 11.0936 18.0301 11.9602C18.7234 11.2669 19.9367 11.2669 20.6301 11.9602C20.9767 12.3069 21.1501 12.7402 21.1501 13.2602C21.4101 14.0402 20.8901 14.6469 20.2834 14.9069ZM10.1434 15.8602C10.8367 15.8602 11.4434 15.2536 11.4434 14.5602C11.4434 13.8669 10.8367 13.2602 10.1434 13.2602C9.45005 13.2602 8.84339 13.8669 8.84339 14.5602C8.84339 15.2536 9.36339 15.8602 10.1434 15.8602ZM16.1234 17.5069C15.9501 17.3336 15.7767 17.3336 15.6901 17.5069C15.1701 18.1136 13.9567 18.2869 13.0901 18.2869C12.2234 18.2869 11.0101 18.1136 10.4901 17.5069C10.3167 17.3336 10.1434 17.3336 10.0567 17.5069C9.88339 17.6802 9.88339 17.8536 10.0567 17.9402C10.9234 18.8069 12.6567 18.8936 13.1767 18.8936C13.6967 18.8936 15.3434 18.8069 16.2967 17.9402C16.2101 17.8536 16.2101 17.6802 16.1234 17.5069ZM17.1634 14.5602C17.1634 13.8669 16.5567 13.2602 15.8634 13.2602C15.1701 13.2602 14.5634 13.8669 14.5634 14.5602C14.5634 15.2536 15.1701 15.8602 15.8634 15.8602C16.5567 15.8602 17.1634 15.2536 17.1634 14.5602Z" fill="white"/>
</svg>
