<svg width="26" height="26" viewBox="0 0 26 26" fill="none" xmlns="http://www.w3.org/2000/svg">
<path d="M13 26C20.1797 26 26 20.1797 26 13C26 5.8203 20.1797 0 13 0C5.8203 0 0 5.8203 0 13C0 20.1797 5.8203 26 13 26Z" fill="#FFDA44"/>
<path d="M10.1719 11.3044H25.8879C25.057 4.92588 19.6029 0 12.998 0C12.0273 0 11.0818 0.107301 10.1719 0.309004V11.3044H10.1719Z" fill="#0052B4"/>
<path d="M6.78193 11.3045V1.58081C3.21231 3.52847 0.656949 7.10099 0.109375 11.3045H6.78193V11.3045Z" fill="#0052B4"/>
<path d="M6.78188 14.6956H0.109375C0.656949 18.8991 3.21231 22.4716 6.78193 24.4192L6.78188 14.6956Z" fill="#0052B4"/>
<path d="M10.1719 14.6956V25.6909C11.0818 25.8926 12.0273 25.9999 12.998 25.9999C19.6029 25.9999 25.057 21.074 25.8879 14.6956H10.1719V14.6956Z" fill="#0052B4"/>
</svg>
