<svg width="30" height="28" viewBox="0 0 30 28" fill="none" xmlns="http://www.w3.org/2000/svg">
	<path fill-rule="evenodd" clip-rule="evenodd" d="M15.0002 16.0352C15.54 16.0352 16.0578 16.2496 16.4395 16.6314C16.8213 17.0131 17.0357 17.5308 17.0357 18.0707V19.084H12.9646V18.0618C12.967 17.5235 13.1824 17.008 13.5639 16.6282C13.9454 16.2484 14.4618 16.0352 15.0002 16.0352Z" fill="#FFC42A"/>
	<path fill-rule="evenodd" clip-rule="evenodd" d="M29.2216 15.0129C29.2193 17.1669 28.3626 19.232 26.8394 20.7552C25.3163 22.2783 23.2512 23.135 21.0972 23.1374V22.124C21.0951 21.318 20.7758 20.5453 20.2083 19.9729C19.8895 19.6506 19.4999 19.4072 19.0705 19.2618V18.0618C19.0705 16.9844 18.6425 15.9512 17.8807 15.1894C17.1189 14.4276 16.0857 13.9996 15.0083 13.9996C13.9309 13.9996 12.8977 14.4276 12.1359 15.1894C11.3741 15.9512 10.9461 16.9844 10.9461 18.0618V19.2529C10.5128 19.3999 10.12 19.6465 9.79941 19.9729C9.23436 20.5469 8.91546 21.3186 8.91052 22.124V23.1374H6.86607C5.32248 23.1425 3.83438 22.562 2.70198 21.513C1.56957 20.464 0.877137 19.0246 0.764355 17.4851C0.651573 15.9457 1.12684 14.4207 2.09428 13.2179C3.06171 12.0151 4.44932 11.2239 5.97718 11.004C5.88375 10.4818 5.83616 9.95235 5.83496 9.4218C5.83387 7.33869 6.58619 5.32546 7.95312 3.75356C9.32006 2.18166 11.2094 1.15716 13.2725 0.869084C15.3356 0.581008 17.4332 1.04879 19.1785 2.18613C20.9237 3.32347 22.1987 5.05362 22.7683 7.05736C24.5922 7.4441 26.2282 8.44512 27.4028 9.89313C28.5774 11.3411 29.2194 13.1484 29.2216 15.0129Z" fill="#FFC42A"/>
	<path fill-rule="evenodd" clip-rule="evenodd" d="M18.7597 21.4037C18.5699 21.217 18.3148 21.1118 18.0486 21.1104H11.9508C11.6821 21.1123 11.4244 21.2173 11.2308 21.4037C11.042 21.5957 10.9366 21.8544 10.9375 22.1237V26.1859C10.9366 26.4552 11.042 26.7139 11.2308 26.9059C11.4244 27.0923 11.6821 27.1973 11.9508 27.1992H18.0486C18.3167 27.1969 18.573 27.0894 18.7626 26.8999C18.9521 26.7103 19.0596 26.4539 19.0619 26.1859V22.1237C19.0595 21.8533 18.951 21.5948 18.7597 21.4037ZM14.9997 25.1726C14.7993 25.1726 14.6034 25.1131 14.4367 25.0018C14.2701 24.8905 14.1402 24.7322 14.0635 24.547C13.9868 24.3619 13.9668 24.1581 14.0059 23.9615C14.045 23.765 14.1415 23.5844 14.2832 23.4427C14.4249 23.301 14.6055 23.2045 14.802 23.1654C14.9986 23.1263 15.2024 23.1463 15.3875 23.223C15.5727 23.2997 15.7309 23.4296 15.8423 23.5963C15.9536 23.7629 16.0131 23.9588 16.0131 24.1592C16.0131 24.428 15.9063 24.6857 15.7163 24.8758C15.5262 25.0658 15.2685 25.1726 14.9997 25.1726Z" fill="#FF8900"/>
</svg>