<svg width="26" height="26" viewBox="0 0 26 26" fill="none" xmlns="http://www.w3.org/2000/svg">
<path d="M0 12.9999C0 14.5901 0.286051 16.1133 0.80859 17.5217L13 18.6521L25.1914 17.5217C25.7139 16.1133 26 14.5901 26 12.9999C26 11.4098 25.7139 9.88654 25.1914 8.47822L13 7.34778L0.80859 8.47822C0.286051 9.88654 0 11.4098 0 12.9999H0Z" fill="#FFDA44"/>
<path d="M25.1914 8.47828C23.3546 3.52793 18.5895 0 13 0C7.41046 0 2.6454 3.52793 0.808594 8.47828H25.1914Z" fill="#D80027"/>
<path d="M0.808594 17.5217C2.6454 22.4721 7.41046 26 13 26C18.5895 26 23.3546 22.4721 25.1914 17.5217H0.808594Z" fill="#D80027"/>
</svg>
