<svg width="26" height="26" viewBox="0 0 26 26" fill="none" xmlns="http://www.w3.org/2000/svg">
<path d="M13 26C20.1797 26 26 20.1797 26 13C26 5.8203 20.1797 0 13 0C5.8203 0 0 5.8203 0 13C0 20.1797 5.8203 26 13 26Z" fill="#D80027"/>
<path d="M12.4674 10.6227L13.534 12.0925L15.2614 11.5324L14.1931 13.001L15.2596 14.4708L13.5328 13.9086L12.4645 15.3772L12.4656 13.5612L10.7388 12.9989L12.4662 12.4388L12.4674 10.6227Z" fill="#F0F0F0"/>
<path d="M9.55634 16.6738C7.52732 16.6738 5.88241 15.0289 5.88241 12.9999C5.88241 10.9709 7.52732 9.32599 9.55634 9.32599C10.189 9.32599 10.7842 9.48601 11.3039 9.76759C10.4886 8.97022 9.37362 8.47815 8.1433 8.47815C5.64598 8.47815 3.62158 10.5026 3.62158 12.9999C3.62158 15.4971 5.64603 17.5216 8.1433 17.5216C9.37373 17.5216 10.4887 17.0295 11.3039 16.2321C10.7842 16.5138 10.189 16.6738 9.55634 16.6738V16.6738Z" fill="#F0F0F0"/>
</svg>
