<svg width="26" height="26" viewBox="0 0 26 26" fill="none" xmlns="http://www.w3.org/2000/svg">
<g clip-path="url(#clip0)">
<path d="M0.808594 17.5217C2.6454 22.4721 7.41046 26 13 26C18.5895 26 23.3546 22.4721 25.1914 17.5217L13 16.3914L0.808594 17.5217Z" fill="#FFDA44"/>
<path d="M13 0C7.41046 0 2.6454 3.52787 0.808594 8.47828L13 9.60867L25.1914 8.47823C23.3546 3.52787 18.5895 0 13 0Z" fill="black"/>
<path d="M0.80859 8.47827C0.286051 9.88659 0 11.4098 0 13C0 14.5902 0.286051 16.1134 0.80859 17.5217H25.1915C25.714 16.1134 26 14.5902 26 13C26 11.4098 25.714 9.88659 25.1914 8.47827H0.80859Z" fill="#D80027"/>
</g>
<defs>
<clipPath id="clip0">
<rect width="26" height="26" fill="white"/>
</clipPath>
</defs>
</svg>
