<svg width="26" height="26" viewBox="0 0 26 26" fill="none" xmlns="http://www.w3.org/2000/svg">
<g clip-path="url(#clip0_220_54)">
<path d="M8.58899 22.9697L8.9913 20.3523L8.09515 20.3311H3.81592L6.78976 1.01779C6.79899 0.959489 6.82899 0.905125 6.87284 0.866519C6.91669 0.827913 6.97284 0.806641 7.0313 0.806641H14.2467C16.6421 0.806641 18.2951 1.31719 19.1582 2.32488C19.5628 2.79761 19.8205 3.29161 19.9451 3.83525C20.0759 4.40567 20.0782 5.08719 19.9505 5.9184L19.9413 5.97906V6.51167L20.3459 6.74646C20.6867 6.93161 20.9575 7.14355 21.1651 7.38622C21.5113 7.7904 21.7351 8.30409 21.8298 8.91312C21.9275 9.53949 21.8951 10.2848 21.7351 11.1286C21.5505 12.0993 21.2521 12.9447 20.849 13.6365C20.4782 14.2739 20.0059 14.8025 19.4451 15.2122C18.9098 15.6014 18.2736 15.8969 17.5544 16.086C16.8575 16.2719 16.0628 16.3657 15.1913 16.3657H14.6298C14.2282 16.3657 13.8382 16.5138 13.5321 16.7793C13.2251 17.0503 13.0221 17.4206 12.9598 17.8256L12.9175 18.0612L12.2067 22.6742L12.1744 22.8436C12.1659 22.8972 12.1513 22.924 12.1298 22.9421C12.1105 22.9586 12.0828 22.9697 12.0559 22.9697H8.58899Z" fill="#253B80"/>
<path d="M20.7292 6.04053C20.7077 6.18156 20.6831 6.32574 20.6554 6.47386C19.7038 11.4777 16.4485 13.2063 12.2908 13.2063H10.1738C9.66538 13.2063 9.23692 13.5845 9.15769 14.0982L8.07384 21.1386L7.76692 23.1343C7.71538 23.4716 7.96923 23.7757 8.30154 23.7757H12.0562C12.5008 23.7757 12.8785 23.4448 12.9485 22.9957L12.9854 22.8003L13.6923 18.2054L13.7377 17.9533C13.8069 17.5026 14.1854 17.1717 14.63 17.1717H15.1915C18.8292 17.1717 21.6769 15.659 22.5092 11.2815C22.8569 9.45283 22.6769 7.92592 21.7569 6.85204C21.4785 6.52822 21.1331 6.25956 20.7292 6.04053Z" fill="#179BD7"/>
<path d="M19.7339 5.634C19.5885 5.59066 19.4385 5.55127 19.2846 5.51582C19.13 5.48115 18.9716 5.45042 18.8085 5.42363C18.2377 5.32909 17.6123 5.28418 16.9423 5.28418H11.2869C11.1477 5.28418 11.0154 5.31648 10.8969 5.37479C10.6362 5.50321 10.4423 5.75612 10.3954 6.06576L9.19233 13.8705L9.15771 14.0982C9.23695 13.5845 9.66541 13.2063 10.1739 13.2063H12.2908C16.4485 13.2063 19.7039 11.4769 20.6554 6.47388C20.6839 6.32576 20.7077 6.18157 20.7293 6.04054C20.4885 5.90976 20.2277 5.79788 19.9469 5.70254C19.8777 5.67891 19.8062 5.65606 19.7339 5.634Z" fill="#222D65"/>
<path d="M10.3954 6.06588C10.4423 5.75624 10.6361 5.50333 10.8969 5.3757C11.0161 5.31739 11.1477 5.28509 11.2869 5.28509H16.9423C17.6123 5.28509 18.2377 5.33 18.8085 5.42455C18.9715 5.45133 19.13 5.48206 19.2846 5.51673C19.4385 5.55218 19.5885 5.59158 19.7338 5.63491C19.8061 5.65697 19.8777 5.67982 19.9477 5.70267C20.2285 5.798 20.4892 5.91067 20.73 6.04067C21.0131 4.19152 20.7277 2.93249 19.7515 1.79242C18.6754 0.537333 16.7331 0 14.2477 0H7.0323C6.52461 0 6.09153 0.378182 6.01307 0.892667L3.00768 20.4045C2.94845 20.7905 3.23922 21.1388 3.61922 21.1388H8.07384L9.1923 13.8706L10.3954 6.06588Z" fill="#253B80"/>
</g>
<defs>
<clipPath id="clip0_220_54">
<rect width="20" height="26" fill="white" transform="translate(3)"/>
</clipPath>
</defs>
</svg>
