<svg width="26" height="26" viewBox="0 0 26 26" fill="none" xmlns="http://www.w3.org/2000/svg">
<rect width="26" height="26" fill="#126E51"/>
<g clip-path="url(#clip0_461_4901)">
<path d="M14.163 14.9017C14.5876 14.9017 14.8091 14.7607 14.8091 14.4659C14.8091 14.1775 14.5807 14.0176 14.1374 14.0176C13.9731 14.0176 13.7767 14.0305 13.5614 14.0625V13.0892C13.7384 13.109 13.9035 13.115 14.068 13.115C14.5241 13.115 14.7517 12.9804 14.7517 12.6738C14.7517 12.3731 14.5434 12.2327 14.1129 12.2327C13.8337 12.2327 13.4799 12.3098 13.0435 12.4443V11.4293C13.4307 11.2944 13.8986 11.2307 14.449 11.2307C15.6462 11.2307 16.3362 11.7494 16.3362 12.5632C16.3362 13.0629 16.0138 13.4277 15.4496 13.5498C16.0767 13.6784 16.3991 14.0305 16.3991 14.5686C16.3991 15.4133 15.6973 15.9059 14.3547 15.9059C13.9045 15.9059 13.4622 15.8426 13.0061 15.7338V14.6893C13.4563 14.8238 13.8357 14.9009 14.1659 14.9009L14.163 14.9017ZM19.1589 12.8966C20.1025 12.8966 20.7292 13.4794 20.7292 14.3377C20.7292 15.2604 20.0136 15.9009 18.8866 15.9009C17.557 15.9009 16.7018 15.0618 16.7018 13.6847C16.7018 12.1159 17.6081 11.2317 19.2417 11.2317C19.5916 11.2317 19.9651 11.2712 20.3504 11.3543V12.3731C19.9965 12.2643 19.6545 12.2129 19.2928 12.2129C18.5713 12.2129 18.2352 12.5076 18.2175 13.1743C18.4848 12.9705 18.7758 12.8993 19.1611 12.8993L19.1589 12.8966ZM19.2918 14.3063C19.2918 13.9344 19.083 13.697 18.7791 13.697C18.4752 13.697 18.2723 13.9276 18.2723 14.3063C18.2723 14.6774 18.4752 14.9081 18.7791 14.9081C19.0893 14.9081 19.2918 14.6774 19.2918 14.3063ZM21.198 11.3462H24.2816V12.4097H22.6402V13.0823C22.7719 13.0758 22.8623 13.0695 22.8918 13.0695C23.9101 13.0695 24.4625 13.5897 24.4625 14.4661C24.4625 15.3702 23.7902 15.9083 22.4809 15.9083C22.0249 15.9083 21.5747 15.839 21.1186 15.7243V14.7114C21.4666 14.8083 21.7713 14.8538 22.0308 14.8538C22.5615 14.8538 22.8407 14.6738 22.8407 14.3415C22.8407 13.9711 22.5497 13.7852 21.9541 13.7852C21.7005 13.7852 21.4534 13.8301 21.1937 13.894V11.3462H21.198Z" fill="#FFE418"/>
<path d="M1.5 11H3.06282V12.8879C3.28496 12.5808 3.58966 12.4372 4.00248 12.4372C4.91108 12.4372 5.42573 13.0772 5.42573 14.2141C5.42573 15.2988 4.90479 15.9457 4.04081 15.9457C3.51358 15.9457 3.15777 15.7498 2.9547 15.3316V15.8998H1.5V11ZM3.018 14.181C3.018 14.6782 3.12612 14.9197 3.40566 14.9197C3.67891 14.9197 3.79941 14.6784 3.79941 14.1812C3.79941 13.6867 3.685 13.4433 3.40566 13.4433C3.12612 13.4433 3.018 13.6867 3.018 14.1812V14.181ZM9.42065 14.4956H7.25511C7.29305 14.8622 7.57279 15.0357 8.09982 15.0357C8.46821 15.0357 8.84938 14.965 9.21738 14.8236V15.6782C8.85568 15.826 8.36029 15.9096 7.78234 15.9096C6.44834 15.9096 5.73062 15.2671 5.73062 14.1361C5.73062 13.0307 6.43635 12.369 7.61191 12.369C8.91524 12.369 9.42242 12.9793 9.42242 14.2776V14.4958L9.42065 14.4956ZM8.06149 13.8467V13.7438C8.06149 13.3646 7.92191 13.1464 7.65496 13.1464C7.38171 13.1464 7.24214 13.3646 7.24214 13.7504V13.8465H8.06149V13.8467ZM12.5085 12.4588V13.442H11.7798V14.2451C11.7798 14.6566 11.8441 14.8495 12.1569 14.8495C12.2414 14.8495 12.3554 14.8356 12.4891 14.804V15.7674C12.151 15.8703 11.8128 15.9079 11.4551 15.9079C11.0147 15.9079 10.6766 15.7654 10.4781 15.5221C10.2225 15.1997 10.2166 14.7961 10.2166 14.256V13.441H9.65812V12.458H10.2144V11.7134L11.7798 11.2184V12.4588H12.5085Z" fill="white"/>
</g>
<defs>
<clipPath id="clip0_461_4901">
<rect width="23" height="5" fill="white" transform="translate(1.5 11)"/>
</clipPath>
</defs>
</svg>
