<svg width="26" height="26" viewBox="0 0 26 26" fill="none" xmlns="http://www.w3.org/2000/svg">
<path d="M22.6995 15.419C21.364 20.7762 15.938 24.0365 10.5802 22.7006C5.22459 21.365 1.9643 15.9387 3.30046 10.582C4.63545 5.22419 10.0614 1.96366 15.4176 3.29923C20.775 4.63481 24.0351 10.0617 22.6994 15.4191L22.6995 15.419H22.6995Z" fill="#F7931A"/>
<path d="M17.4094 11.5753C17.6084 10.2445 16.5952 9.52915 15.2098 9.05194L15.6592 7.24928L14.5619 6.97585L14.1244 8.73105C13.8359 8.6591 13.5397 8.59131 13.2452 8.5241L13.6859 6.75732L12.5892 6.48389L12.1396 8.28596C11.9008 8.23161 11.6664 8.17789 11.4389 8.12129L11.4402 8.11562L9.9269 7.73773L9.635 8.90976C9.635 8.90976 10.4491 9.09638 10.432 9.10786C10.8763 9.21877 10.9567 9.51292 10.9433 9.74608L10.4314 11.7997C10.462 11.8075 10.5017 11.8187 10.5455 11.8363C10.5089 11.8272 10.4699 11.8173 10.4295 11.8076L9.71188 14.6845C9.65758 14.8195 9.51974 15.0221 9.20907 14.9452C9.22006 14.9611 8.41151 14.7462 8.41151 14.7462L7.8667 16.0023L9.2947 16.3582C9.56036 16.4249 9.82069 16.4946 10.0771 16.5601L9.62297 18.3834L10.719 18.6569L11.1687 16.8529C11.4682 16.9342 11.7587 17.0092 12.0432 17.0798L11.595 18.8753L12.6924 19.1487L13.1465 17.3288C15.0177 17.683 16.4246 17.5402 17.0169 15.8477C17.4941 14.485 16.9931 13.6991 16.0087 13.1865C16.7257 13.0212 17.2658 12.5496 17.4098 11.5754L17.4094 11.5752L17.4094 11.5753ZM14.9022 15.091C14.5631 16.4536 12.2688 15.717 11.525 15.5323L12.1275 13.1167C12.8713 13.3024 15.2566 13.6698 14.9023 15.091H14.9022ZM15.2416 11.5555C14.9322 12.795 13.0227 12.1653 12.4032 12.0109L12.9495 9.82008C13.569 9.97449 15.5638 10.2627 15.2417 11.5555H15.2416Z" fill="white"/>
</svg>
