<svg width="26" height="26" viewBox="0 0 26 26" fill="none" xmlns="http://www.w3.org/2000/svg">
<g clip-path="url(#clip0_11101_323)">
<path d="M17.5215 0.808539C16.1132 0.286051 14.59 6.75885e-09 12.9998 6.75885e-09C11.4096 -5.07745e-05 9.88641 0.286051 8.4781 0.808539L7.34766 12.9999L8.4781 25.1914C9.88636 25.714 11.4096 26 12.9998 26C14.5899 26 16.1132 25.714 17.5215 25.1914L18.6519 13L17.5215 0.808539Z" fill="#FFDA44"/>
<path d="M25.9998 13C25.9998 7.41051 22.4719 2.64535 17.5215 0.808594V25.1915C22.4719 23.3546 25.9997 18.5896 25.9998 13Z" fill="#D80027"/>
<path d="M0 12.9999C0 18.5895 3.52788 23.3545 8.47818 25.1914L8.47823 0.808594C3.52787 2.64535 0 7.41036 0 12.9999Z" fill="#0052B4"/>
</g>
<defs>
<clipPath id="clip0_11101_323">
<rect width="26" height="26" fill="white"/>
</clipPath>
</defs>
</svg>
