<svg width="26" height="26" viewBox="0 0 26 26" fill="none" xmlns="http://www.w3.org/2000/svg">
<g clip-path="url(#clip0_3209_2008)">
<path d="M13 26C20.1797 26 26 20.1797 26 13C26 5.8203 20.1797 0 13 0C5.8203 0 0 5.8203 0 13C0 20.1797 5.8203 26 13 26Z" fill="#F0F0F0"/>
<path d="M13 0C5.82034 0 0 5.82034 0 13C0 14.5902 0.286051 16.1134 0.80859 17.5217H25.1915C25.714 16.1134 26 14.5902 26 13C26 5.82034 20.1797 0 13 0Z" fill="#0052B4"/>
<path d="M13 0C7.41046 0 2.6454 3.52788 0.808594 8.47829H25.1915C23.3546 3.52788 18.5895 0 13 0V0Z" fill="#D80027"/>
<path d="M3.36133 7.3479V13.833C3.36133 17.5219 8.18052 18.6523 8.18052 18.6523C8.18052 18.6523 12.9997 17.5219 12.9997 13.833V7.3479H3.36133Z" fill="#D80027"/>
<path d="M5.35449 8.47824H11.0067V6.21736L9.87626 6.78255L8.18062 5.08691L6.48493 6.78255L5.35449 6.21736V8.47824Z" fill="#FFDA44"/>
<path d="M11.8693 14.7357L8.19541 11.0618L4.52148 14.7357L5.72048 15.9347L8.19541 13.4598L10.6703 15.9347L11.8693 14.7357Z" fill="#FFDA44"/>
<path d="M11.8693 11.3044H10.1552C10.2515 11.1381 10.3076 10.9454 10.3076 10.7393C10.3076 10.1149 9.80146 9.60889 9.17716 9.60889C8.74577 9.60889 8.37116 9.8505 8.18058 10.2057C7.99 9.85056 7.61538 9.60889 7.184 9.60889C6.55969 9.60889 6.05355 10.1149 6.05355 10.7393C6.05355 10.9454 6.10962 11.1381 6.206 11.3044H4.52148C4.52148 11.9288 5.0653 12.4349 5.68955 12.4349H5.65193C5.65193 13.0592 6.15801 13.5653 6.78237 13.5653C6.78237 14.1181 7.17937 14.5774 7.70369 14.6757L6.81299 16.6867C7.23986 16.8602 7.70633 16.9566 8.19546 16.9566C8.68458 16.9566 9.15106 16.8602 9.57793 16.6867L8.68722 14.6757C9.21154 14.5775 9.60855 14.1182 9.60855 13.5653C10.2329 13.5653 10.739 13.0592 10.739 12.4349H10.7014C11.3256 12.4349 11.8693 11.9287 11.8693 11.3044V11.3044Z" fill="#F0F0F0"/>
</g>
<defs>
<clipPath id="clip0_3209_2008">
<rect width="26" height="26" fill="white"/>
</clipPath>
</defs>
</svg>
