<svg width="27" height="26" viewBox="0 0 27 26" fill="none" xmlns="http://www.w3.org/2000/svg">
<path d="M18.1956 0.80859C16.7332 0.286051 15.1513 0 13.5 0C11.8487 0 10.2669 0.286051 8.80438 0.80859L7.63046 13L8.80438 25.1914C10.2669 25.714 11.8487 26 13.5 26C15.1513 26 16.7332 25.714 18.1956 25.1914L19.3696 13L18.1956 0.80859Z" fill="#FFDA44"/>
<path d="M27 13C27 7.41046 23.3364 2.64535 18.1956 0.808594V25.1915C23.3364 23.3546 27 18.5895 27 13V13Z" fill="#D80027"/>
<path d="M0 13C0 18.5895 3.66356 23.3546 8.80437 25.1914V0.808594C3.66356 2.64535 0 7.41046 0 13V13Z" fill="black"/>
</svg>
