<svg width="27" height="26" viewBox="0 0 27 26" fill="none" xmlns="http://www.w3.org/2000/svg">
<path d="M13.5 26C20.9558 26 27 20.1797 27 13C27 5.8203 20.9558 0 13.5 0C6.04416 0 0 5.8203 0 13C0 20.1797 6.04416 26 13.5 26Z" fill="#039BE5"/>
<path d="M6.17755 12.7183L19.1938 7.88556C19.7979 7.6754 20.3255 8.02748 20.1298 8.90715L20.1309 8.90606L17.9147 18.9605C17.7504 19.6733 17.3105 19.8466 16.6952 19.5108L13.3202 17.1156L11.6923 18.6257C11.5123 18.7991 11.3604 18.9453 11.0117 18.9453L11.2513 15.6379L17.5063 10.1963C17.7785 9.96556 17.4455 9.83556 17.0867 10.0652L9.3568 14.7517L6.02455 13.7507C5.30117 13.5297 5.28542 13.0541 6.17755 12.7183V12.7183Z" fill="white"/>
</svg>
