<svg id="Layer_1" data-name="Layer 1" xmlns="http://www.w3.org/2000/svg" viewBox="0 0 589.78 150.45"><defs><style>.cls-1{fill:#ffc42b;}.cls-2{fill:#161929;}.cls-3{fill:none;}</style></defs><path class="cls-1" d="M127.46,41.38l40.63.12L178.42,57l-51.89.74A14.19,14.19,0,0,0,115.87,62c-2.75,2.84-4.08,4.2-4.13,14.87v33h-18V42.16h17v6.41h.67C114.05,41.65,119.38,41.38,127.46,41.38Z"/><path class="cls-1" d="M195,101.87q-9.85,10-25.84,10t-25.85-10q-9.85-10-9.85-25.18t9.85-25.11q9.87-10,25.85-10.06T195,51.58q9.86,10.06,9.86,25.11T195,101.87Zm-25.84-7.46a17,17,0,0,0,12.72-5.13,17.36,17.36,0,0,0,5-12.59A17.63,17.63,0,0,0,182,64a18.5,18.5,0,0,0-25.57,0,17.63,17.63,0,0,0-4.93,12.72,17.38,17.38,0,0,0,4.93,12.65A17,17,0,0,0,169.17,94.41Z"/><path class="cls-1" d="M247.1,76.16l28.71,33.7h-23L235.25,90.28l-13.46,19.58H199.15l25-33.3-24.77-33h23l13.72,19.72L249.5,43.52h21.18Z"/><path class="cls-1" d="M296.85,93.87,313.1,43.52h18.25L305,120.65a24.25,24.25,0,0,1-8.12,11.72,21.26,21.26,0,0,1-13.19,4.13H264.75V118.92h18.38a8.23,8.23,0,0,0,4.53-1.2l-30.51-74.2h19.72Z"/><path class="cls-2" d="M353.93,43.52h36.49V60.84h-36a2.47,2.47,0,0,0-2.8,2.8,2.52,2.52,0,0,0,2.27,2.79l24.91,5.07a21.41,21.41,0,0,1,12,6.52,17.17,17.17,0,0,1,4.4,11.86A18.57,18.57,0,0,1,389,104.2a22,22,0,0,1-15.39,5.66H335.28V92.41h38.09a2.59,2.59,0,0,0,2.93-2.93A2.81,2.81,0,0,0,374,86.55l-25.31-5.46A21.2,21.2,0,0,1,337,74.69a16.54,16.54,0,0,1-4.53-11.59,18.09,18.09,0,0,1,6.13-14.05A22,22,0,0,1,353.93,43.52Z"/><path class="cls-2" d="M452.15,52.05V43.52H470v66.34H452.15v-8.79h-.66a23.31,23.31,0,0,1-8.79,7.72A28.11,28.11,0,0,1,430,111.86a29.39,29.39,0,0,1-22.58-9.79q-9-9.79-9-25.25t8.86-25.44q8.85-10,22.84-9.86a26.64,26.64,0,0,1,12.53,2.93,23.83,23.83,0,0,1,8.79,7.6ZM421.58,89.68a17.17,17.17,0,0,0,12.86,5.13,16.7,16.7,0,0,0,12.78-5.27,18.07,18.07,0,0,0,4.93-12.85,17.9,17.9,0,0,0-5-12.92,16.9,16.9,0,0,0-12.72-5.2,17.21,17.21,0,0,0-12.86,5.13,17.85,17.85,0,0,0-5,13A17.85,17.85,0,0,0,421.58,89.68Z"/><path class="cls-2" d="M477.23,90.68V14h18V87.48q0,4.93,5.33,4.93h8.93v17.45H497.08q-9.46,0-14.65-5.06T477.23,90.68Z"/><path class="cls-2" d="M545,41.52q16.51,0,26.1,11.73t7.73,29.43H528.7a14.33,14.33,0,0,0,5.13,9,19.55,19.55,0,0,0,19.72,2.26,12.31,12.31,0,0,0,5.79-5.13h18.78a29.81,29.81,0,0,1-12.25,17,37,37,0,0,1-21,6.06q-16.11,0-25.31-10.19t-9.19-25q0-14.91,9.79-25T545,41.52Zm9.92,19a17.15,17.15,0,0,0-10.06-2.93,17.44,17.44,0,0,0-10.19,3,14.33,14.33,0,0,0-5.79,8.06h31.7A14.32,14.32,0,0,0,554.88,60.57Z"/><path class="cls-3" d="M53.15,39H42.07v.08C44.66,39.08,53.07,39.06,53.15,39Z"/><path class="cls-1" d="M79.31,29.34q-8.93-8.73-22.11-8.73h-34V38.9C28.65,39,37,39,42.07,39H55.73a13.65,13.65,0,0,1,9.46,3.47,11.28,11.28,0,0,1,3.87,8.79,11.84,11.84,0,0,1-3.8,9.19,13.6,13.6,0,0,1-9.53,3.46H23.16v46H42.07v-28H57.2a30.72,30.72,0,0,0,22-8.59q9-8.58,9-22Q88.24,38.07,79.31,29.34Z"/><circle class="cls-2" cx="23.19" cy="51.4" r="12.51"/></svg>