<svg width="14" height="10" viewBox="0 0 14 10" fill="none" xmlns="http://www.w3.org/2000/svg">
<path d="M9.6875 0.29604L13.6875 4.29205C13.875 4.5123 14 4.76402 14 5.01573C14 5.23598 13.875 5.51917 13.6875 5.70795L9.6875 9.70396C9.40625 9.98714 8.96875 10.0815 8.59375 9.92421C8.21875 9.76689 8 9.45224 8 9.0432V0.988262C8 0.610686 8.21875 0.233111 8.59375 0.0757878C8.96875 -0.0815352 9.40625 0.0128586 9.6875 0.29604Z" fill="white"/>
<path d="M4.3125 0.29604L0.3125 4.29205C0.125 4.5123 0 4.76402 0 5.01573C0 5.23598 0.125 5.51917 0.3125 5.70795L4.3125 9.70396C4.59375 9.98714 5.03125 10.0815 5.40625 9.92421C5.78125 9.76689 6 9.45224 6 9.0432V0.988262C6 0.610686 5.78125 0.233111 5.40625 0.0757878C5.03125 -0.0815352 4.59375 0.0128586 4.3125 0.29604Z" fill="white"/>
</svg>
