<svg width="52" height="52" viewBox="0 0 52 52" fill="none" xmlns="http://www.w3.org/2000/svg">
<g clip-path="url(#clip0_1_19)">
<path d="M52 26C52 22.8197 51.428 19.7731 50.3828 16.9566L26 15.8261L1.61718 16.9565C0.572102 19.7731 0 22.8197 0 26C0 29.1803 0.572102 32.2269 1.61718 35.0434L26 36.1739L50.3828 35.0435C51.428 32.2269 52 29.1803 52 26Z" fill="#0052B4"/>
<path d="M26 52C37.1791 52 46.7092 44.9442 50.3828 35.0434H1.61717C5.29079 44.9442 14.8209 52 26 52Z" fill="#FF9811"/>
<path d="M1.61717 16.9566H50.3829C46.7092 7.05575 37.1791 0 26 0C14.8209 0 5.29079 7.05575 1.61717 16.9566Z" fill="#D80027"/>
</g>
<defs>
<clipPath id="clip0_1_19">
<rect width="52" height="52" fill="white"/>
</clipPath>
</defs>
</svg>
