<svg width="26" height="26" viewBox="0 0 26 26" fill="none" xmlns="http://www.w3.org/2000/svg">
<g clip-path="url(#clip0_421_59)">
<path d="M0 13C0 18.5895 3.52788 23.3546 8.47818 25.1914L9.60868 13L8.47818 0.808594C3.52788 2.64545 0 7.41046 0 13Z" fill="#6DA544"/>
<path d="M26.0001 13C26.0001 5.82034 20.1797 0 13.0001 0C11.4099 0 9.88664 0.286051 8.47827 0.80859V25.1914C9.88664 25.714 11.4099 26 13.0001 26C20.1797 26 26.0001 20.1797 26.0001 13Z" fill="#D80027"/>
<path d="M8.47826 17.5219C10.9755 17.5219 13 15.4975 13 13.0002C13 10.503 10.9755 8.47852 8.47826 8.47852C5.98098 8.47852 3.95654 10.503 3.95654 13.0002C3.95654 15.4975 5.98098 17.5219 8.47826 17.5219Z" fill="#FFDA44"/>
<path d="M5.93481 10.7393V13.5653C5.93481 14.97 7.07353 16.1088 8.47829 16.1088C9.88306 16.1088 11.0218 14.9701 11.0218 13.5653V10.7393H5.93481Z" fill="#D80027"/>
<path d="M8.47821 14.4128C8.01072 14.4128 7.63037 14.0325 7.63037 13.565V12.4346H9.32601V13.565C9.32601 14.0325 8.94566 14.4128 8.47821 14.4128Z" fill="#F0F0F0"/>
</g>
<defs>
<clipPath id="clip0_421_59">
<rect width="26" height="26" fill="white"/>
</clipPath>
</defs>
</svg>
