<svg width="26" height="26" viewBox="0 0 26 26" fill="none" xmlns="http://www.w3.org/2000/svg">
<g clip-path="url(#clip0_220_59)">
<path d="M20.4522 6.1668C20.4366 6.05752 20.3369 5.9969 20.2543 5.9903C20.1722 5.9837 18.5648 5.96029 18.5648 5.96029C18.5648 5.96029 17.2205 4.70916 17.0877 4.58188C16.9549 4.45461 16.6955 4.49303 16.5947 4.52185C16.5934 4.52245 16.3422 4.59689 15.9194 4.72236C15.8486 4.50264 15.7446 4.23248 15.5962 3.96112C15.1176 3.08581 14.4166 2.62294 13.5697 2.62175C13.5684 2.62175 13.5678 2.62175 13.5665 2.62175C13.5076 2.62175 13.4494 2.62715 13.3905 2.63195C13.3655 2.60313 13.3404 2.57492 13.3141 2.5473C12.9451 2.16908 12.4722 1.98477 11.9053 2.00098C10.8115 2.031 9.72219 2.78804 8.83893 4.13282C8.21751 5.07897 7.74455 6.26768 7.6105 7.188C6.35451 7.56081 5.47626 7.82134 5.45684 7.82737C4.8229 8.01826 4.80285 8.03687 4.72017 8.60963C4.65878 9.04245 3 21.3352 3 21.3352L16.901 23.6393L22.926 22.2039C22.926 22.2039 20.4679 6.27608 20.4522 6.1668ZM15.2234 4.92888C14.9033 5.02374 14.5394 5.1318 14.1447 5.24887C14.1366 4.71816 14.0708 3.97973 13.8127 3.34156C14.6427 3.49225 15.0512 4.39217 15.2234 4.92888ZM13.4174 5.46499C12.6889 5.68111 11.894 5.91705 11.0966 6.1536C11.3208 5.33052 11.7462 4.51104 12.2686 3.97373C12.4628 3.77381 12.7346 3.55108 13.0566 3.42381C13.3592 4.02896 13.425 4.88566 13.4174 5.46499ZM11.9272 2.69859C12.184 2.69318 12.4001 2.74722 12.5849 2.86368C12.2893 3.01077 12.0036 3.22209 11.7355 3.49765C11.0408 4.21207 10.5083 5.32091 10.296 6.39073C9.63383 6.58704 8.98611 6.77977 8.38975 6.95628C8.76626 5.27228 10.239 2.74541 11.9272 2.69859Z" fill="#95BF47"/>
<path d="M20.2551 5.99115C20.1731 5.98455 18.5656 5.96114 18.5656 5.96114C18.5656 5.96114 17.2214 4.71001 17.0885 4.58274C17.0391 4.53531 16.972 4.51069 16.9019 4.50049L16.9025 23.639L22.9268 22.2042C22.9268 22.2042 20.4687 6.27693 20.4531 6.16766C20.4374 6.05838 20.3372 5.99775 20.2551 5.99115Z" fill="#5E8E3E"/>
<path d="M13.5623 8.95969L12.8626 11.4685C12.8626 11.4685 12.0821 11.1281 11.1569 11.184C9.80003 11.2662 9.78561 12.0863 9.79942 12.2922C9.87333 13.4143 12.9534 13.6592 13.1264 16.2875C13.2623 18.3551 11.9819 19.7696 10.1371 19.8812C7.92263 20.0151 6.70361 18.7634 6.70361 18.7634L7.17281 16.8507C7.17281 16.8507 8.39996 17.738 9.3822 17.6785C10.0237 17.6395 10.2529 17.1394 10.2297 16.7858C10.1333 15.3222 7.62508 15.4086 7.46661 13.0036C7.33316 10.9799 8.7201 8.92907 11.7802 8.74416C12.9591 8.67153 13.5623 8.95969 13.5623 8.95969Z" fill="white"/>
</g>
<defs>
<clipPath id="clip0_220_59">
<rect width="20" height="22" fill="white" transform="translate(3 2)"/>
</clipPath>
</defs>
</svg>
