<svg width="52" height="52" viewBox="0 0 52 52" fill="none" xmlns="http://www.w3.org/2000/svg">
<g clip-path="url(#clip0_1_3)">
<path d="M52 26C52 40.3593 40.3593 52 26 52C11.6407 52 0 40.3593 0 26C8.93039 17.0696 16.5043 9.49569 26 0C40.3593 0 52 11.6407 52 26Z" fill="#D80027"/>
<path d="M26 26C26 11.6407 26 9.94784 26 0C11.6407 0 0 11.6407 0 26H26Z" fill="#0052B4"/>
<path d="M22.6087 15.2162L19.4334 16.71L21.1242 19.7852L17.6762 19.1254L17.2392 22.6087L14.8377 20.0469L12.4359 22.6087L11.9991 19.1254L8.55106 19.785L10.2419 16.7098L7.06662 15.2162L10.242 13.7227L8.55106 10.6474L11.999 11.307L12.436 7.82385L14.8377 10.3857L17.2393 7.82385L17.6762 11.307L21.1243 10.6474L19.4334 13.7228L22.6087 15.2162Z" fill="#F0F0F0"/>
<path d="M14.8381 20.0554C17.511 20.0554 19.6778 17.8886 19.6778 15.2157C19.6778 12.5427 17.511 10.3759 14.8381 10.3759C12.1652 10.3759 9.99832 12.5427 9.99832 15.2157C9.99832 17.8886 12.1652 20.0554 14.8381 20.0554Z" fill="#0052B4"/>
<path d="M14.8377 17.7951C13.4157 17.7951 12.2589 16.6382 12.2589 15.2162C12.2589 13.7942 13.4158 12.6373 14.8377 12.6373C16.2597 12.6373 17.4166 13.7942 17.4166 15.2162C17.4165 16.6382 16.2595 17.7951 14.8377 17.7951Z" fill="#F0F0F0"/>
</g>
<defs>
<clipPath id="clip0_1_3">
<rect width="52" height="52" fill="white"/>
</clipPath>
</defs>
</svg>
