<svg width="26" height="26" viewBox="0 0 26 26" fill="none" xmlns="http://www.w3.org/2000/svg">
<path d="M25.1914 17.5217C25.714 16.1134 26 14.5902 26 13C26 11.4098 25.714 9.88655 25.1914 8.47828L13 7.34784L0.80859 8.47828C0.286 9.88655 0 11.4098 0 13C0 14.5902 0.286 16.1134 0.80859 17.5217L13 18.6522L25.1914 17.5217Z" fill="#6DA544"/>
<path d="M25.1914 8.47828C23.3546 3.52787 18.5895 0 13 0C7.41046 0 2.6454 3.52787 0.808594 8.47828H25.1914Z" fill="#FFDA44"/>
<path d="M13 26C18.5895 26 23.3546 22.4721 25.1914 17.5217H0.808594C2.6454 22.4721 7.41046 26 13 26Z" fill="#D80027"/>
</svg>
