<svg width="26" height="26" viewBox="0 0 26 26" fill="none" xmlns="http://www.w3.org/2000/svg">
<g clip-path="url(#clip0_2309_29)">
<path d="M13 26C20.1797 26 26 20.1797 26 13C26 5.8203 20.1797 0 13 0C5.8203 0 0 5.8203 0 13C0 20.1797 5.8203 26 13 26Z" fill="#F0F0F0"/>
<path d="M3.8076 22.1915C-1.2692 17.1146 -1.2692 8.8835 3.8076 3.80664C3.80725 3.8072 11.3044 12.9991 11.3044 12.9991L3.8076 22.1915Z" fill="black"/>
<path d="M11.3017 12.9993L1.72151 6.52539C1.42449 7.04168 1.16256 7.58057 0.9375 8.13836L5.78757 12.9994L0.937652 17.8607C1.16251 18.4181 1.42419 18.9566 1.721 19.4725L11.3017 12.9993Z" fill="#FFDA44"/>
<path d="M25.8929 11.3052H11.3069L3.81037 3.80859C3.00254 4.61642 2.3007 5.53003 1.72707 6.52691L8.18843 13.0008L1.72656 19.4739C2.30019 20.471 3.00234 21.385 3.81037 22.193L11.3069 14.6964H25.8929C25.9651 14.1414 26.0029 13.5755 26.0029 13.0008C26.0029 12.4261 25.9651 11.8602 25.8929 11.3052V11.3052Z" fill="#6DA544"/>
<path d="M5.08594 23.3118C7.27811 24.9968 10.0222 25.9993 13.0008 25.9993C19.0072 25.9993 24.0612 21.9256 25.553 16.3906H12.0072L5.08594 23.3118Z" fill="#0052B4"/>
<path d="M25.553 9.60868C24.0612 4.07372 19.0072 0 13.0008 0C10.0222 0 7.27811 1.00247 5.08594 2.6875L12.0071 9.60868H25.553Z" fill="#D80027"/>
</g>
<defs>
<clipPath id="clip0_2309_29">
<rect width="26" height="26" fill="white"/>
</clipPath>
</defs>
</svg>
