<svg width="30" height="30" viewBox="0 0 30 30" fill="none" xmlns="http://www.w3.org/2000/svg">
	<path fill-rule="evenodd" clip-rule="evenodd" d="M18.8931 21.3107L22.2087 24.1374C21.8325 24.612 21.3544 24.9958 20.8097 25.2605C20.2649 25.5252 19.6676 25.6638 19.062 25.6662H10.3598L6.4487 29.0174C6.29988 29.1409 6.11955 29.2205 5.92798 29.2472C5.73641 29.2739 5.54119 29.2466 5.36426 29.1685C5.19361 29.0894 5.04834 28.9643 4.94473 28.8073C4.84112 28.6503 4.78324 28.4676 4.77759 28.2796V25.6662C4.24896 25.6675 3.72536 25.5636 3.23719 25.3608C2.74901 25.158 2.30599 24.8602 1.93385 24.4848C1.56171 24.1093 1.26787 23.6637 1.06938 23.1737C0.870884 22.6838 0.771703 22.1593 0.777591 21.6307V11.1862C0.777591 10.1089 1.20557 9.07564 1.96739 8.31382C2.7292 7.55201 3.76245 7.12402 4.83981 7.12402V15.2129C4.83981 16.8301 5.48226 18.3811 6.62581 19.5247C7.76937 20.6682 9.32036 21.3107 10.9376 21.3107H18.8931Z" fill="#FF8900"/>
	<path fill-rule="evenodd" clip-rule="evenodd" d="M25.1594 0.777344H10.9372C9.85985 0.777344 8.82661 1.20533 8.0648 1.96714C7.30298 2.72896 6.875 3.7622 6.875 4.83957V15.2129C6.87735 16.2895 7.30609 17.3214 8.06739 18.0827C8.8287 18.844 9.86058 19.2728 10.9372 19.2751H19.6394L23.5506 22.6262C23.699 22.751 23.8798 22.831 24.072 22.8569C24.2641 22.8827 24.4597 22.8534 24.6358 22.7724C24.8119 22.6913 24.9614 22.5618 25.0667 22.399C25.172 22.2362 25.2288 22.0468 25.2306 21.8529V19.2751C25.7547 19.2751 26.2737 19.1719 26.7579 18.9713C27.2421 18.7707 27.6821 18.4768 28.0527 18.1062C28.4233 17.7355 28.7173 17.2956 28.9179 16.8113C29.1184 16.3271 29.2217 15.8081 29.2217 15.284V4.83957C29.2217 3.7622 28.7937 2.72896 28.0319 1.96714C27.2701 1.20533 26.2368 0.777344 25.1594 0.777344ZM14.9994 10.9373H12.9639V8.90179H14.9994V10.9373ZM19.0617 10.9373H17.035V8.90179H19.0706L19.0617 10.9373ZM23.1239 10.9373H21.0972V8.90179H23.1328L23.1239 10.9373Z" fill="#FFC42A"/>
</svg>