<svg width="26" height="26" viewBox="0 0 26 26" fill="none" xmlns="http://www.w3.org/2000/svg">
<path fill-rule="evenodd" clip-rule="evenodd" d="M4.48986 20.736C-0.220044 16.648 2.82586 7.54727 10.0682 8.6923V9.53523C3.95192 9.25053 1.25962 16.5461 4.48986 20.736ZM17.6999 4.94779C18.4441 5.54241 19.4703 5.98077 20.8849 6.06579V6.89154C19.3197 6.60138 18.3273 5.82347 17.6999 4.94779ZM15.7359 0.600586C15.7359 0.905566 15.7744 1.23291 15.8243 1.53165H12.9383V15.9063C12.9383 16.5687 12.8703 17.1589 12.7342 17.6766C11.558 20.268 8.22996 19.93 7.30878 18.1511C8.67846 19.0091 10.9301 18.7808 11.8544 16.7455C11.989 16.2292 12.0572 15.6379 12.0572 14.9752V0.600586H15.7359Z" fill="#00F7EF"/>
<path fill-rule="evenodd" clip-rule="evenodd" d="M16.6163 1.53125V1.54971C16.6163 1.88251 16.7148 6.69511 21.7643 6.99541C21.7643 11.4726 21.7666 6.99541 21.7666 10.7134C21.387 10.736 18.4423 10.5234 16.6095 8.88873L16.6038 16.1277C16.6493 19.4055 14.8246 22.6199 11.4085 23.2678C10.4514 23.4498 9.58849 23.4695 8.14289 23.1534C-0.190901 20.6605 2.57888 8.29983 10.9462 9.62271C10.9462 13.6132 10.9485 9.62271 10.9485 13.6132C7.49054 13.1046 6.33536 15.9792 7.25395 18.0394C8.08985 19.914 11.532 20.3207 12.7324 17.6754C12.8683 17.1577 12.9363 16.5676 12.9365 15.9051V1.53125H16.6163Z" fill="black"/>
<path fill-rule="evenodd" clip-rule="evenodd" d="M10.0683 9.53483C10.3627 9.54754 10.6561 9.57697 10.9471 9.62297C10.9471 13.6135 10.9495 9.62297 10.9495 13.6135C7.49148 13.1049 6.3363 15.9795 7.25488 18.0397C7.27178 18.0771 7.28998 18.1146 7.30896 18.1507C6.8979 17.8936 6.56718 17.5402 6.37478 17.1086C5.4575 15.0494 6.61268 12.1738 10.0694 12.6824C10.0694 9.02497 10.0683 12.0685 10.0683 9.53483ZM20.8843 6.89011C21.1753 6.94278 21.4692 6.97751 21.7644 6.99411C21.7644 11.4713 21.7668 6.99411 21.7668 10.7121C21.3872 10.7347 18.4424 10.5221 16.6097 8.88743L16.604 16.1264C16.6495 19.4042 14.8248 22.6186 11.4086 23.2665C10.4516 23.4485 9.58864 23.4682 8.14304 23.1521C6.5144 22.6651 5.31164 21.8001 4.48926 20.7341C5.22194 21.3708 6.14182 21.8861 7.26424 22.2226C8.70932 22.5374 9.57148 22.5169 10.5285 22.3357C13.9455 21.6891 15.7701 18.4736 15.7259 15.1976L15.7304 7.95767C17.5631 9.59229 20.5079 9.80627 20.8885 9.78235C20.8885 6.32929 20.8851 9.94355 20.8851 6.89011H20.8843ZM16.6162 1.53125V1.54971C16.6162 1.74523 16.6513 3.48307 17.7001 4.94739C16.436 3.93599 15.9841 2.47479 15.8245 1.53125H16.6162Z" fill="#FF004F"/>
</svg>
