<svg width="26" height="26" viewBox="0 0 26 26" fill="none" xmlns="http://www.w3.org/2000/svg">
<g clip-path="url(#clip0_3209_2033)">
<path d="M13 26C20.1797 26 26 20.1797 26 13C26 5.8203 20.1797 0 13 0C5.8203 0 0 5.8203 0 13C0 20.1797 5.8203 26 13 26Z" fill="#FCFCFC"/>
<path d="M20.3479 11.3044C19.9523 11.3044 19.4624 11.3044 18.6523 11.3044C18.6523 14.4261 16.1217 16.9566 13.0001 16.9566C9.87846 16.9566 7.34798 14.4261 7.34798 11.3044C6.80157 11.3044 6.19865 11.3044 5.65234 11.3044C5.65234 14.6669 7.91089 17.5019 10.9938 18.375C10.6558 19.017 10.7073 19.8254 11.1901 20.428C11.8243 19.9197 12.4808 19.3935 13.0378 18.9473C13.5948 19.3936 14.2514 19.9197 14.8855 20.428C15.3731 19.8194 15.4211 19.0008 15.0719 18.3556C18.121 17.4611 20.3479 14.643 20.3479 11.3044V11.3044Z" fill="#6DA544"/>
<path d="M8.47852 10.7392C8.47852 10.7392 8.47852 13.5653 11.3046 13.5653L11.8698 14.1305H13.0002C13.0002 14.1305 13.5654 12.4349 14.6959 12.4349C14.6959 12.4349 14.6959 11.3044 15.8263 11.3044C16.9568 11.3044 17.5219 11.3044 17.5219 11.3044C17.5219 11.3044 16.9568 9.04355 19.7828 7.34791L18.6524 6.78271C18.6524 6.78271 14.6959 9.60879 11.8698 9.0436V10.174H10.7393L10.1742 9.60884L8.47852 10.7392Z" fill="#FFDA44"/>
</g>
<defs>
<clipPath id="clip0_3209_2033">
<rect width="26" height="26" fill="white"/>
</clipPath>
</defs>
</svg>
