<svg width="27" height="26" viewBox="0 0 27 26" fill="none" xmlns="http://www.w3.org/2000/svg">
<path d="M27 13C27 20.1797 20.9558 26 13.5 26C6.0442 26 0 20.1797 0 13C0 13.003 13.5 0.00147266 13.5 0C20.9558 0 27 5.82034 27 13Z" fill="#0052B4"/>
<path d="M13.4999 0C13.4992 0 13.4985 0.001 13.4977 0.001L13.4999 0Z" fill="#F0F0F0"/>
<path d="M13.4639 13.0001H13.5C13.5 12.9883 13.5 12.9771 13.5 12.9653C13.488 12.977 13.4759 12.9885 13.4639 13.0001Z" fill="#F0F0F0"/>
<path d="M13.5 6.7826C13.5 4.49516 13.5 2.99625 13.5 0H13.4977C6.04294 0.00116797 0 5.82095 0 12.9999H7.04347V9.18059L11.0097 12.9999H13.4639C13.476 12.9884 13.488 12.9768 13.5001 12.9652C13.5001 12.0893 13.5001 11.3079 13.5001 10.602L9.53374 6.7826H13.5Z" fill="#F0F0F0"/>
<path d="M6.8299 1.6958C4.71847 2.85356 2.96316 4.54387 1.76086 6.5771V13.0002H5.28262V5.08718V5.08713H13.5C13.5 4.01752 13.5 2.99854 13.5 1.6958H6.8299Z" fill="#D80027"/>
<path d="M13.5 11.4014L8.70365 6.78274H7.04352C7.04352 6.78269 7.04352 6.78274 7.04352 6.78274L13.4999 13H13.5C13.5 13 13.5 11.8978 13.5 11.4014Z" fill="#D80027"/>
<path d="M8.14192 15.2612L8.88284 16.7531L10.5559 16.3807L9.80669 17.8687L11.1522 18.8962L9.47694 19.2597L9.48164 20.9134L8.14192 19.8788L6.80226 20.9134L6.80695 19.2597L5.13168 18.8962L6.4772 17.8687L5.72785 16.3807L7.40105 16.7531L8.14192 15.2612Z" fill="#F0F0F0"/>
<path d="M20.2122 18.0869L20.5827 18.8328L21.4193 18.6466L21.0446 19.3906L21.7174 19.9044L20.8798 20.0862L20.8821 20.913L20.2122 20.3957L19.5424 20.913L19.5447 20.0862L18.7072 19.9044L19.3799 19.3906L19.0053 18.6466L19.8418 18.8328L20.2122 18.0869Z" fill="#F0F0F0"/>
<path d="M16.766 10.1743L17.1364 10.9203L17.973 10.734L17.5984 11.478L18.2711 11.9918L17.4335 12.1736L17.4358 13.0004L16.766 12.4831L16.0962 13.0004L16.0984 12.1736L15.2609 11.9918L15.9336 11.478L15.559 10.734L16.3955 10.9203L16.766 10.1743Z" fill="#F0F0F0"/>
<path d="M20.2122 5.65234L20.5827 6.39832L21.4193 6.21211L21.0447 6.9561L21.7173 7.4698L20.8798 7.65165L20.8821 8.47847L20.2122 7.96116L19.5424 8.47847L19.5447 7.65165L18.7072 7.4698L19.3798 6.9561L19.0053 6.21211L19.8418 6.39832L20.2122 5.65234Z" fill="#F0F0F0"/>
<path d="M23.2225 9.04346L23.5929 9.78943L24.4295 9.60317L24.0549 10.3472L24.7276 10.8609L23.89 11.0428L23.8923 11.8695L23.2225 11.3523L22.5527 11.8695L22.555 11.0428L21.7174 10.8609L22.3901 10.3472L22.0155 9.60317L22.852 9.78943L23.2225 9.04346Z" fill="#F0F0F0"/>
<path d="M21.07 13L21.3614 13.8636H22.3044L21.5415 14.3973L21.8329 15.2609L21.07 14.7272L20.3072 15.2609L20.5985 14.3973L19.8357 13.8636H20.7786L21.07 13Z" fill="#F0F0F0"/>
</svg>
