<svg width="52" height="52" viewBox="0 0 52 52" fill="none" xmlns="http://www.w3.org/2000/svg">
<g clip-path="url(#clip0_1_23)">
<path d="M26 52C40.3594 52 52 40.3594 52 26C52 11.6406 40.3594 0 26 0C11.6406 0 0 11.6406 0 26C0 40.3594 11.6406 52 26 52Z" fill="#F0F0F0"/>
<path d="M50.3828 16.9566H1.61718C0.572 19.7732 0 22.8197 0 26C0 29.1803 0.572 32.2268 1.61718 35.0434H50.3829C51.428 32.2268 52 29.1803 52 26C52 22.8197 51.428 19.7732 50.3828 16.9566Z" fill="#0052B4"/>
<path d="M26 0C18.1197 0 11.0587 3.50634 6.29068 9.04343H45.7092C40.9413 3.50634 33.8803 0 26 0Z" fill="#D80027"/>
<path d="M45.7093 42.9566H6.29068C11.0587 48.4937 18.1197 52 26 52C33.8803 52 40.9413 48.4937 45.7093 42.9566Z" fill="#D80027"/>
</g>
<defs>
<clipPath id="clip0_1_23">
<rect width="52" height="52" fill="white"/>
</clipPath>
</defs>
</svg>
