<svg width="27" height="26" viewBox="0 0 27 26" fill="none" xmlns="http://www.w3.org/2000/svg">
<path d="M24.5576 0H2.44237C1.0935 0 0 1.053 0 2.35191V23.648C0 24.947 1.0935 26 2.44237 26H24.5576C25.9065 26 27 24.947 27 23.648V2.35191C27 1.053 25.9065 0 24.5576 0ZM8.35494 22.4501C8.35494 22.8281 8.03674 23.1346 7.64418 23.1346H4.61863C4.22607 23.1346 3.90786 22.8281 3.90786 22.4501V10.2369C3.90786 9.85883 4.22607 9.55241 4.61863 9.55241H7.64418C8.03674 9.55241 8.35494 9.85883 8.35494 10.2369V22.4501ZM6.1314 8.40113C4.54399 8.40113 3.2571 7.16191 3.2571 5.63329C3.2571 4.10466 4.54399 2.86544 6.1314 2.86544C7.71882 2.86544 9.0057 4.10466 9.0057 5.63329C9.0057 7.16191 7.71889 8.40113 6.1314 8.40113ZM24.1664 22.5052C24.1664 22.8528 23.8738 23.1346 23.5129 23.1346H20.2663C19.9054 23.1346 19.6127 22.8528 19.6127 22.5052V16.7765C19.6127 15.9219 19.8731 13.0316 17.2935 13.0316C15.2926 13.0316 14.8868 15.01 14.8053 15.8978V22.5052C14.8053 22.8528 14.5127 23.1346 14.1517 23.1346H11.0117C10.6508 23.1346 10.3582 22.8528 10.3582 22.5052V10.1817C10.3582 9.83419 10.6508 9.55241 11.0117 9.55241H14.1517C14.5126 9.55241 14.8053 9.83419 14.8053 10.1817V11.2472C15.5472 10.1751 16.6498 9.34748 18.9975 9.34748C24.1962 9.34748 24.1664 14.0245 24.1664 16.5943V22.5052Z" fill="#0077B7"/>
</svg>
