<svg width="26" height="26" viewBox="0 0 26 26" fill="none" xmlns="http://www.w3.org/2000/svg">
<path d="M0 0V26H26V0H0ZM12.3933 20.8L2.6 17.0213L4.784 15.7387C5.46 15.34 6.292 15.2707 7.03733 15.5653L16.8307 19.344L14.6467 20.6267C13.9707 21.0253 13.1387 21.0773 12.3933 20.8ZM15.6693 15.6173L5.876 11.8387L8.06 10.556C8.736 10.1573 9.568 10.088 10.3133 10.3827L20.1067 14.1613L17.9227 15.444C17.2467 15.8427 16.4147 15.8947 15.6693 15.6173ZM18.9627 10.4347L9.16933 6.656L11.3533 5.37333C12.0293 4.97467 12.8613 4.90533 13.6067 5.2L23.4 8.97866L21.216 10.2613C20.54 10.66 19.708 10.7293 18.9627 10.4347Z" fill="#008CFA"/>
</svg>
