<svg width="26" height="26" viewBox="0 0 26 26" fill="none" xmlns="http://www.w3.org/2000/svg">
<g clip-path="url(#clip0_12247_2938)">
<path d="M24.7101 18.652C25.5365 16.9429 26 15.0256 26 12.9999C26 10.9742 25.5365 9.05682 24.7101 7.34773L13 6.21729L1.28995 7.34773C0.463481 9.05682 0 10.9742 0 12.9999C0 15.0256 0.463481 16.9429 1.28995 18.652L13 19.7825L24.7101 18.652Z" fill="#0052B4"/>
<path d="M13.0001 26.0002C18.154 26.0002 22.6074 23.0008 24.7101 18.6523H1.29004C3.39279 23.0008 7.8461 26.0002 13.0001 26.0002Z" fill="#D80027"/>
<path d="M22.5149 15.5516L21.8283 16.0882L22.1263 16.9068L21.4038 16.4197L20.7171 16.9561L20.9572 16.1185L20.2349 15.6312L21.1057 15.6008L21.346 14.7632L21.6441 15.582L22.5149 15.5516Z" fill="#F0F0F0"/>
<path d="M20.7563 12.5067L20.2947 13.2457L20.8548 13.9131L20.0093 13.7026L19.5475 14.4414L19.4866 13.5722L18.6411 13.3613L19.4491 13.0348L19.3884 12.1655L19.9485 12.8331L20.7563 12.5067Z" fill="#F0F0F0"/>
<path d="M18.0626 10.2461L17.8815 11.0985L18.6361 11.5342L17.7695 11.6255L17.5883 12.4776L17.2339 11.6817L16.3672 11.7726L17.0149 11.1896L16.6604 10.3936L17.4151 10.8292L18.0626 10.2461Z" fill="#F0F0F0"/>
<path d="M14.7584 9.04346L14.8798 9.90638L15.7379 10.0576L14.9547 10.4398L15.076 11.3027L14.4707 10.6758L13.6874 11.0578L14.0966 10.2883L13.4912 9.66157L14.3494 9.81284L14.7584 9.04346Z" fill="#F0F0F0"/>
<path d="M11.2416 9.04346L11.6508 9.81284L12.5088 9.66146L11.9036 10.2885L12.3126 11.0579L11.5294 10.6758L10.924 11.3025L11.0454 10.4398L10.2622 10.0578L11.1204 9.90638L11.2416 9.04346Z" fill="#F0F0F0"/>
<path d="M7.93763 10.2461L8.58529 10.8292L9.33975 10.3936L8.98545 11.1899L9.63296 11.7728L8.76638 11.6817L8.41182 12.4776L8.23089 11.6254L7.36426 11.5344L8.11887 11.0986L7.93763 10.2461Z" fill="#F0F0F0"/>
<path d="M5.24377 12.5066L6.05185 12.833L6.61177 12.1655L6.55118 13.035L7.35901 13.3614L6.51355 13.5721L6.45267 14.4412L5.99107 13.7024L5.14551 13.9131L5.70562 13.2456L5.24377 12.5066Z" fill="#F0F0F0"/>
<path d="M3.48535 15.552L4.35635 15.5824L4.65423 14.7637L4.89468 15.6014L5.76543 15.6318L5.04302 16.1191L5.28311 16.9567L4.59655 16.4202L3.87408 16.9074L4.17212 16.0886L3.48535 15.552Z" fill="#F0F0F0"/>
<path d="M24.7101 7.34784C22.6074 2.99939 18.154 0 13.0001 0C7.8461 0 3.39279 2.99939 1.29004 7.34784H24.7101Z" fill="#FFDA44"/>
</g>
<defs>
<clipPath id="clip0_12247_2938">
<rect width="26" height="26" fill="white"/>
</clipPath>
</defs>
</svg>
