<svg width="26" height="26" viewBox="0 0 26 26" fill="none" xmlns="http://www.w3.org/2000/svg">
<g clip-path="url(#clip0_11101_288)">
<path d="M13 26C20.1797 26 26 20.1797 26 13C26 5.8203 20.1797 0 13 0C5.8203 0 0 5.8203 0 13C0 20.1797 5.8203 26 13 26Z" fill="#F0F0F0"/>
<path d="M10.1739 11.3044H25.8899C25.0589 4.92588 19.6049 0 12.9999 0C12.0292 0 11.0838 0.107301 10.1738 0.309004L10.1739 11.3044Z" fill="#D80027"/>
<path d="M6.78193 11.3037V1.58008C3.21236 3.52774 0.656949 7.10025 0.109375 11.3038L6.78193 11.3037Z" fill="#D80027"/>
<path d="M6.78188 14.6953H0.109375C0.656949 18.8988 3.21236 22.4713 6.78193 24.419L6.78188 14.6953Z" fill="#D80027"/>
<path d="M10.1738 14.6954V25.6907C11.0838 25.8924 12.0292 25.9997 12.9999 25.9997C19.6049 25.9997 25.0589 21.0738 25.8899 14.6953H10.1738V14.6954Z" fill="#D80027"/>
</g>
<defs>
<clipPath id="clip0_11101_288">
<rect width="26" height="26" fill="white"/>
</clipPath>
</defs>
</svg>
