<svg width="52" height="52" viewBox="0 0 52 52" fill="none" xmlns="http://www.w3.org/2000/svg">
<g clip-path="url(#clip0_1_9)">
<path d="M26 52C40.3594 52 52 40.3594 52 26C52 11.6406 40.3594 0 26 0C11.6406 0 0 11.6406 0 26C0 40.3594 11.6406 52 26 52Z" fill="#F0F0F0"/>
<path d="M0 26.0001C0 11.6407 11.6407 0 26 0C40.3593 0 52 11.6407 52 26.0001" fill="#D80027"/>
<path d="M15.8261 13.5651C15.8261 9.77702 18.4883 6.61254 22.0434 5.83609C21.497 5.71686 20.9302 5.65216 20.3477 5.65216C15.9774 5.65216 12.4347 9.19486 12.4347 13.5652C12.4347 17.9355 15.9774 21.4782 20.3477 21.4782C20.93 21.4782 21.4969 21.4135 22.0434 21.2942C18.4883 20.5178 15.8261 17.3533 15.8261 13.5651Z" fill="#F0F0F0"/>
<path d="M26 6.21735L26.5612 7.94442H28.3773L26.908 9.01194L27.4692 10.739L26 9.67169L24.5308 10.739L25.092 9.01194L23.6228 7.94442H25.4388L26 6.21735Z" fill="#F0F0F0"/>
<path d="M21.5947 9.60864L22.1559 11.3358H23.9719L22.5027 12.4032L23.0639 14.1303L21.5947 13.063L20.1253 14.1303L20.6867 12.4032L19.2174 11.3358H21.0334L21.5947 9.60864Z" fill="#F0F0F0"/>
<path d="M30.4054 9.60864L30.9667 11.3358H32.7827L31.3134 12.4032L31.8747 14.1303L30.4054 13.063L28.9362 14.1303L29.4974 12.4032L28.0282 11.3358H29.8442L30.4054 9.60864Z" fill="#F0F0F0"/>
<path d="M28.7098 14.6956L29.271 16.4228H31.087L29.6178 17.4902L30.179 19.2173L28.7098 18.1499L27.2406 19.2173L27.8018 17.4902L26.3326 16.4228H28.1485L28.7098 14.6956Z" fill="#F0F0F0"/>
<path d="M23.2903 14.6956L23.8514 16.4228H25.6676L24.1983 17.4902L24.7596 19.2173L23.2903 18.1499L21.821 19.2173L22.3822 17.4902L20.913 16.4228H22.7291L23.2903 14.6956Z" fill="#F0F0F0"/>
</g>
<defs>
<clipPath id="clip0_1_9">
<rect width="52" height="52" fill="white"/>
</clipPath>
</defs>
</svg>
