<svg width="27" height="26" viewBox="0 0 27 26" fill="none" xmlns="http://www.w3.org/2000/svg">
<g clip-path="url(#clip0)">
<path d="M0.587059 19.3636C1.13831 21.2464 2.82468 21.5909 2.93718 21.657C5.71256 22.385 21.269 22.3871 24.086 21.657C26.0154 21.1196 26.3698 19.4719 26.4362 19.3636C27.1708 15.6001 27.2192 10.6936 26.4024 6.42315L26.4362 6.63548C25.8849 4.75265 24.1985 4.40815 24.086 4.34207C21.3478 3.62598 5.75081 3.5989 2.93718 4.34207C1.00781 4.88048 0.653434 6.52715 0.587059 6.63548C-0.199316 10.5907 -0.238691 15.1288 0.587059 19.3636V19.3636ZM10.8088 16.9553V9.05457L17.8581 13.0109L10.8088 16.9553Z" fill="#E53935"/>
</g>
<defs>
<clipPath id="clip0">
<rect width="27" height="26" fill="white"/>
</clipPath>
</defs>
</svg>
