<svg width="26" height="26" viewBox="0 0 26 26" fill="none" xmlns="http://www.w3.org/2000/svg">
<g clip-path="url(#clip0)">
<path d="M13 26C20.1797 26 26 20.1797 26 13C26 5.8203 20.1797 0 13 0C5.8203 0 0 5.8203 0 13C0 20.1797 5.8203 26 13 26Z" fill="#F0F0F0"/>
<path d="M11.8696 13C11.8696 13 3.81523 22.1942 3.80762 22.1924C6.16011 24.5449 9.41016 26 13 26C20.1797 26 26 20.1797 26 13H11.8696Z" fill="#D80027"/>
<path d="M3.80712 3.80762C-1.26969 8.88442 -1.26969 17.1156 3.80712 22.1925C5.90504 20.0945 7.92273 18.0768 12.9995 13L3.80712 3.80762Z" fill="#0052B4"/>
</g>
<defs>
<clipPath id="clip0">
<rect width="26" height="26" fill="white"/>
</clipPath>
</defs>
</svg>
