<svg width="26" height="26" viewBox="0 0 26 26" fill="none" xmlns="http://www.w3.org/2000/svg">
<g clip-path="url(#clip0_12247_2951)">
<path d="M4.83595 23.1137H21.1645C21.1665 23.1121 21.1682 23.1109 21.17 23.1094H4.83057C4.83221 23.111 4.8343 23.1123 4.83595 23.1137Z" fill="#3757A6"/>
<path d="M17.5031 5.76198H23.7997C23.0653 4.66874 22.1685 3.69456 21.1448 2.87061H16.4722C16.8848 3.70465 17.228 4.68438 17.5031 5.76198Z" fill="#EFECEC"/>
<path d="M18.2968 11.5442H25.9168C25.8049 10.5415 25.5791 9.57328 25.253 8.65283H18.0503C18.1741 9.59029 18.2561 10.5616 18.2968 11.5442Z" fill="#EFECEC"/>
<path d="M18.0527 17.3269H25.2589C25.584 16.4061 25.8087 15.4383 25.9189 14.4355H18.2974C18.2572 15.4182 18.1759 16.3893 18.0527 17.3269Z" fill="#EFECEC"/>
<path d="M16.4814 23.1092H21.1697C22.1884 22.2849 23.0809 21.3102 23.8116 20.2183H17.5078C17.2339 21.2951 16.8924 22.2746 16.4814 23.1092Z" fill="#EFECEC"/>
<path d="M16.0612 2.87084H21.1452C18.9164 1.07639 16.0848 0 13.0003 0H12.9999C12.9864 0 12.973 0.000823346 12.9595 0.000823346C14.4347 0.00883725 15.1942 1.11684 16.0612 2.87084Z" fill="#4166AF"/>
<path d="M17.7034 8.65314H25.2533C24.8881 7.62352 24.3985 6.65345 23.8 5.76221H17.1562C17.3872 6.66701 17.5696 7.63977 17.7034 8.65314Z" fill="#4166AF"/>
<path d="M25.9173 11.5444H17.9087C17.9487 12.5051 17.9491 13.4751 17.9095 14.4358H25.9195C25.9712 13.9639 26.0002 13.4857 26.0002 13.0002C26.0002 12.508 25.9706 12.0227 25.9173 11.5444Z" fill="#4166AF"/>
<path d="M17.0898 20.2185H23.8119C24.4083 19.3265 24.8963 18.3564 25.2596 17.3271H17.6351C17.5016 18.3404 17.3196 19.3133 17.0898 20.2185Z" fill="#4166AF"/>
<path d="M12.9595 25.9992C12.973 25.9992 12.9864 26 12.9999 26C16.0932 26 18.9325 24.9176 21.1643 23.1138H16.0958C15.2278 24.8762 14.4388 25.9911 12.9595 25.9992Z" fill="#4166AF"/>
<path d="M16.4724 2.871C15.6051 1.11699 14.4345 0.00899046 12.9593 0.000976562C9.89078 0.0106372 7.07433 1.08417 4.85547 2.871H16.4724Z" fill="#4166AF"/>
<path d="M16.4722 2.87061H4.8551C3.83163 3.6945 2.93484 4.66868 2.2002 5.76192H17.5028C17.228 4.68433 16.8848 3.7046 16.4722 2.87061Z" fill="#EFEFEF"/>
<path d="M17.5035 5.76221H2.20082C1.60225 6.65345 1.11274 7.62352 0.747559 8.65314H18.0507C17.9167 7.63977 17.734 6.66701 17.5035 5.76221Z" fill="#4166AF"/>
<path d="M0.747332 8.65332C0.420958 9.57377 0.195361 10.542 0.0834961 11.5447H18.297C18.2566 10.5621 18.1743 9.59056 18.0505 8.65332H0.747332Z" fill="#EFEFEF"/>
<path d="M0 12.9998V13.0002C0 13.4856 0.0289269 13.9639 0.0810721 14.4358H18.2979C18.3375 13.4752 18.3371 12.5051 18.2971 11.5444H0.0833226C0.0301893 12.0227 0 12.508 0 12.9998Z" fill="#4166AF"/>
<path d="M0.740774 17.3269H18.0532C18.1763 16.3893 18.2576 15.4182 18.2976 14.4355H0.0810547C0.190889 15.4383 0.415662 16.4061 0.740774 17.3269Z" fill="#EFEFEF"/>
<path d="M2.18844 20.2185H17.5079C17.7377 19.3133 17.9197 18.3404 18.0531 17.3271H0.740723C1.10404 18.3564 1.59157 19.3265 2.18844 20.2185Z" fill="#4166AF"/>
<path d="M2.18848 20.2188C2.919 21.3108 3.81129 22.2853 4.83043 23.1097H16.4817C16.8926 22.2751 17.2341 21.2956 17.508 20.2188H2.18848Z" fill="#EFEFEF"/>
<path d="M12.9595 25.9992C14.4388 25.9911 15.6119 24.8762 16.4797 23.1138H4.83594C7.05809 24.9096 9.88212 25.9895 12.9595 25.9992Z" fill="#4166AF"/>
<path d="M12.9998 0C5.82067 0 0.000384228 5.82007 0 12.9998L0.0810721 14.4358H13.0002L12.9998 0Z" fill="#3757A6"/>
<path d="M5.43213 2.43311C4.16319 3.34367 3.06359 4.47484 2.19287 5.77375H5.43213V2.43311Z" fill="#3757A6"/>
<path d="M0.750452 8.64355C0.266215 10.0059 0 11.4717 0 12.9999L0.0810721 14.4359H5.43233V8.64355H0.750452Z" fill="#3757A6"/>
<path d="M13 5.77385L12.9997 0C11.3428 0 9.75913 0.31342 8.30176 0.87873V5.77385H13Z" fill="#3757A6"/>
<path d="M13.0003 8.64307H8.30225V14.4356H13.0003V8.64307Z" fill="#3757A6"/>
<path d="M8.30172 5.77403V0.878906C7.27539 1.27691 6.3129 1.80094 5.43214 2.43316V5.77386H2.19288C1.59985 6.6594 1.11358 7.62205 0.750488 8.64344H5.43236V14.4358V14.5384H8.30194V14.4358V8.64366H13.0002V5.77403H8.30172Z" fill="#EFEFEF"/>
</g>
<defs>
<clipPath id="clip0_12247_2951">
<rect width="26" height="26" fill="white"/>
</clipPath>
</defs>
</svg>
