<svg width="26" height="26" viewBox="0 0 26 26" fill="none" xmlns="http://www.w3.org/2000/svg">
<path d="M25.1914 17.5217C25.714 16.1134 26 14.5901 26 12.9999C26 11.4098 25.714 9.88659 25.1914 8.47822L13 7.34778L0.80859 8.47822C0.286051 9.88659 0 11.4098 0 12.9999C0 14.5901 0.286051 16.1134 0.80859 17.5217L13 18.6521L25.1914 17.5217Z" fill="#F0F0F0"/>
<path d="M12.9999 26C18.5894 26 23.3545 22.4721 25.1913 17.5217H0.808472C2.64533 22.4721 7.41034 26 12.9999 26Z" fill="#D80027"/>
<path d="M12.9999 0C7.41034 0 2.64533 3.52787 0.808472 8.47828H25.1913C23.3545 3.52787 18.5894 0 12.9999 0Z" fill="#D80027"/>
</svg>
