<svg width="26" height="26" viewBox="0 0 26 26" fill="none" xmlns="http://www.w3.org/2000/svg">
<path d="M13 26C20.1797 26 26 20.1797 26 13C26 5.8203 20.1797 0 13 0C5.8203 0 0 5.8203 0 13C0 20.1797 5.8203 26 13 26Z" fill="#6DA544"/>
<path d="M13.0008 5.08691L23.74 13L13.0008 20.913L2.26172 13L13.0008 5.08691Z" fill="#FFDA44"/>
<path d="M13.0002 17.5217C15.4975 17.5217 17.5219 15.4973 17.5219 13C17.5219 10.5027 15.4975 8.47827 13.0002 8.47827C10.503 8.47827 8.47852 10.5027 8.47852 13C8.47852 15.4973 10.503 17.5217 13.0002 17.5217Z" fill="#F0F0F0"/>
<path d="M10.7399 12.7173C9.95358 12.7173 9.19476 12.8369 8.48047 13.0588C8.51211 15.5288 10.5232 17.5216 13.0008 17.5216C14.5327 17.5216 15.8857 16.7591 16.7037 15.5936C15.3043 13.8418 13.1511 12.7173 10.7399 12.7173Z" fill="#0052B4"/>
<path d="M17.4388 13.8663C17.4932 13.5858 17.5226 13.2964 17.5226 13C17.5226 10.5027 15.4982 8.47827 13.0009 8.47827C11.1376 8.47827 9.53795 9.60567 8.8457 11.2153C9.45762 11.0885 10.0912 11.0218 10.7401 11.0218C13.3663 11.0217 15.7422 12.1134 17.4388 13.8663Z" fill="#0052B4"/>
</svg>
