<svg width="26" height="26" viewBox="0 0 26 26" fill="none" xmlns="http://www.w3.org/2000/svg">
<g clip-path="url(#clip0_220_53)">
<path d="M93.0356 12.4725L97.9101 24C96.4733 23.8165 95.0373 23.5869 93.5743 23.3807L90.8285 17.0103L88.0065 22.8542C86.6213 22.648 85.2607 22.5786 83.8755 22.4184L88.8276 12.335L84.3372 2H88.4944L91.0086 7.77442L93.7028 2H97.9101L93.0356 12.4725ZM81.0535 2H77.2818V21.9833C78.5131 22.0521 79.796 22.0974 81.0535 22.2349V2ZM74.0227 21.7537C70.585 21.5475 67.1466 21.3647 63.632 21.2953V2H67.4798V18.0414C69.6869 18.0874 71.8933 18.2476 74.0227 18.339V21.7537ZM59.5263 9.81448V13.2519H54.2671V21.0664H50.4693V2H61.2455V5.43744H54.2671V9.81448H59.5263ZM44.0033 5.43744V21.2499C42.7205 21.2499 41.4122 21.2499 40.1547 21.2953V5.43744H36.1776V2H48.0059V5.43744H44.0033ZM32.0212 13.4347C30.3281 13.4347 28.3265 13.4347 26.8897 13.5042V18.6146C29.1476 18.4765 31.4055 18.3163 33.6888 18.2476V21.5475L23.0411 22.3043V2H33.6888V5.43744H26.8897V10.066C28.378 10.066 30.6613 9.99731 32.0212 9.99731V13.4347ZM10.6995 11.5102V23.5182C9.31427 23.6563 8.08219 23.8165 6.77393 24V2H10.4432L15.4462 14.4898V2H19.2948V22.5786C17.935 22.7855 16.5498 22.8542 15.0868 23.037L10.6995 11.5102Z" fill="#E50914"/>
</g>
<defs>
<clipPath id="clip0_220_53">
<rect width="13" height="22" fill="white" transform="translate(6.5 2)"/>
</clipPath>
</defs>
</svg>
